<svg xmlns:inkscape="http://www.inkscape.org/namespaces/inkscape" xmlns:sodipodi="http://sodipodi.sourceforge.net/DTD/sodipodi-0.dtd" xmlns="http://www.w3.org/2000/svg" xmlns:svg="http://www.w3.org/2000/svg" version="1.1" id="svg16" sodipodi:docname="BioWorld Logo QQ.cdr" viewBox="153.81 384.92 287.66 72.04">
  <defs id="defs20"/>
  <sodipodi:namedview id="namedview18" pagecolor="#ffffff" bordercolor="#666666" borderopacity="1.0" inkscape:pageshadow="2" inkscape:pageopacity="0.0" inkscape:pagecheckerboard="0"/>
  <g id="Layer1000">
    <path d="m 218.2765,417.4682 c 0,-5.2251 1.7337,-9.5295 5.1891,-12.8772 3.4554,-3.3599 7.6643,-5.0338 12.638,-5.0338 4.8784,0 9.0751,1.65 12.5784,4.962 3.5034,3.312 5.249,7.6284 5.249,12.949 0,5.3325 -1.7456,9.6607 -5.237,12.9847 -3.4915,3.312 -7.6882,4.9739 -12.5904,4.9739 -5.0457,0 -9.2781,-1.6858 -12.6978,-5.0457 -3.4194,-3.3718 -5.1293,-7.6759 -5.1293,-12.9129 z m 7.0305,0.0238 c 0,3.3599 1.0403,6.1098 3.1326,8.2621 2.0925,2.1402 4.651,3.2162 7.664,3.2162 3.0608,0 5.6316,-1.0879 7.7,-3.2522 2.0685,-2.1761 3.0969,-4.9141 3.0969,-8.2261 0,-3.3358 -1.0522,-6.0857 -3.1567,-8.238 -2.1041,-2.164 -4.6511,-3.2403 -7.6402,-3.2403 -3.1326,0 -5.7152,1.1001 -7.7477,3.312 -2.0327,2.1999 -3.0489,4.926 -3.0489,8.1663 z m -64.9242,10.8326 v -36.5153 h -5.9541 v -6.0976 h 16.2249 c 4.4598,0 7.8078,0.263 10.0315,0.801 2.236,0.538 4.1967,1.9009 5.9066,4.089 1.7098,2.1881 2.5588,4.7469 2.5588,7.7 0,2.2598 -0.5142,4.3044 -1.5304,6.1339 -1.0284,1.8173 -2.5228,3.2043 -4.4958,4.1369 2.7142,0.9326 4.8065,2.4749 6.2652,4.6392 1.4706,2.152 2.1999,4.6151 2.1999,7.3891 0,2.4032 -0.538,4.5912 -1.6259,6.5401 -1.0882,1.961 -2.5347,3.4795 -4.3282,4.5555 -1.7935,1.0641 -3.7664,1.7935 -5.9066,2.1643 -2.1282,0.3704 -5.0456,0.5618 -8.7284,0.5618 h -16.5716 v -6.0979 z m 7.3894,-22.3109 h 4.5794 c 3.503,0 5.9422,-0.6098 7.3292,-1.8411 1.387,-1.2317 2.0804,-3.0371 2.0804,-5.4165 0,-4.6272 -3.1326,-6.9468 -9.4096,-6.9468 h -4.5794 z m 0,22.3109 h 2.7618 c 3.6229,0 6.2773,-0.1792 7.9512,-0.538 1.6857,-0.3586 3.0608,-1.2195 4.1249,-2.5586 1.0642,-1.3393 1.5903,-3.0489 1.5903,-5.1534 0,-1.9131 -0.5023,-3.5152 -1.5185,-4.8064 -1.0163,-1.2914 -2.3315,-2.1523 -3.9337,-2.5826 -1.5902,-0.4306 -3.85,-0.6458 -6.7674,-0.6458 h -4.2086 z m 33.5021,-39.4087 c 0,-1.076 0.3827,-2.0086 1.1361,-2.7978 0.7532,-0.801 1.7215,-1.1956 2.8814,-1.1956 1.0999,0 2.0328,0.3827 2.8338,1.1596 0.7889,0.7654 1.1835,1.7218 1.1835,2.8338 0,1.124 -0.3946,2.0804 -1.1835,2.8695 -0.801,0.7773 -1.7339,1.1719 -2.8338,1.1719 -1.112,0 -2.0684,-0.3946 -2.8457,-1.1957 -0.7772,-0.7891 -1.1718,-1.7458 -1.1718,-2.8457 z m 0.9326,39.5521 v -22.0237 h -5.2367 v -5.9545 h 11.9086 v 27.9782 h 5.237 v 5.9545 h -17.1456 v -5.9545 z" style="fill:#c8aa68;fill-rule:evenodd" id="path2"/>
    <path d="m 342.5854,420.3425 c 0.5485,0.2597 2.7646,0.2268 3.4871,0.1829 l 0.2495,-0.0613 c 0.1159,-0.8334 0.1771,-1.7138 0.1771,-2.5489 0,-0.8351 -0.0697,-1.673 -0.1703,-2.4505 l -0.3484,-0.002 c -3.9203,-0.0774 -3.5056,-0.1177 -3.4583,1.6664 0.0222,0.8337 -0.1363,2.5974 0.0633,3.2131 z m 1.0199,-12.3185 c 0.9878,1.5395 1.7509,3.2366 2.2453,5.0451 l -0.7827,0.002 c -3.439,0.005 -2.7351,0.5292 -3.4582,-2.4733 -0.6466,-2.6855 -1.2427,-2.6359 1.9956,-2.5741 z m 2.2047,14.8876 c -0.513,1.8164 -1.2999,3.5175 -2.3116,5.0578 l -1.338,-8e-4 c -1.7367,0.007 -1.0119,-0.8924 -0.5941,-2.4381 0.5445,-2.0163 0.2418,-2.6184 1.3212,-2.6184 z m -4.1884,7.4562 c -1.141,1.2331 -2.4492,2.3088 -3.8886,3.1915 2.4219,-3.3349 1.336,-3.34 3.8886,-3.1915 z m -9.1636,4.4994 c 0.6483,-0.1621 2.0945,-1.4286 2.4846,-1.7895 0.392,-0.3628 2.054,-1.8844 1.4377,-2.5344 -0.2662,-0.2809 -1.4559,-0.2109 -1.9494,-0.1922 -1.0202,0.0391 -0.8215,0.9059 -1.432,2.8774 -0.1599,0.5162 -0.4405,1.1875 -0.5409,1.6387 z m -5.5599,-6.9001 3.9065,-0.002 c 1.273,-6e-4 1.1449,-0.0366 1.3997,-1.8278 0.5508,-3.867 0.9196,-3.2145 -4.3069,-3.2221 -0.9335,-0.003 -1.8919,-0.023 -2.8219,-0.007 -1.2107,0.0201 -0.8691,0.8884 -0.756,1.859 0.4371,3.7595 0.2945,3.204 2.5786,3.2005 z m 3.3614,2.3967 -4.2568,0.0287 c -0.7487,0.2055 -0.3371,1.0922 -0.1454,1.6755 0.1819,0.5545 0.4694,1.2345 0.731,1.7212 0.3787,0.7036 0.5718,0.9927 1.0874,1.461 1.5009,1.3632 2.8956,-2.3598 3.2544,-3.4577 0.2702,-0.826 0.4301,-1.4287 -0.6706,-1.4287 z m -12.8784,-6.2016 c -0.1287,0.7024 0.4819,3.0688 0.847,3.5425 0.335,0.4345 1.353,0.2596 1.9474,0.2588 0.7464,-0.002 1.569,0.0898 2.1243,-0.1627 0.2367,-0.694 -0.2378,-3.1706 -0.2841,-4.1522 -1.7132,0.2968 -2.7844,0.4773 -4.6346,0.5136 z m 10.0355,-3.6459 4.1148,0.001 c 1.4111,-0.004 1.2101,-0.1925 1.2058,-2.6611 -0.005,-2.5833 0.2909,-2.3936 -2.2402,-2.3812 -0.5406,1.4616 -1.5922,3.155 -2.577,4.4031 -0.2075,0.2631 -0.3767,0.3549 -0.5034,0.6381 z m 8.748,0.005 3.2706,-0.002 c 0.69,-0.009 0.8776,-0.1494 0.9371,-0.802 0.0616,-0.6715 0.0851,-3.0543 -0.0343,-3.6717 -0.1493,-0.7744 -0.953,-0.5751 -2.084,-0.5757 -3.6303,-0.002 -3.3633,-0.2528 -3.3477,1.4771 0.007,0.7804 0.008,1.5829 -0.0142,2.3633 -0.0331,1.1849 0.1148,1.2118 1.2725,1.2107 z m -1.7603,7.2788 c 0.5848,0.2582 2.6498,0.2259 3.4934,0.1666 0.7809,-0.0544 1.0383,-1.2217 1.3686,-2.2901 1.0451,-3.3786 0.8214,-2.7567 -3.7375,-2.7632 -1.101,-0.002 -0.8626,1.0443 -0.9627,2.0574 -0.085,0.8632 -0.4013,2.0724 -0.1618,2.8293 z m 1.1245,-14.726 c 4.7545,-0.009 4.68,0.3625 3.8622,-2.3496 -0.7727,-2.5637 -0.7642,-2.708 -2.0449,-2.6998 -0.7452,0.005 -1.5421,-0.0303 -2.2782,-0.005 -1.2274,0.0423 -0.6857,1.0937 -0.4434,3.5521 0.0817,0.8286 -0.0714,1.5044 0.9043,1.5027 z m -11.2989,21.8174 c -0.0678,-0.5301 -0.6205,-1.9372 -0.8133,-2.6478 -0.5692,-2.0977 0.2027,-1.9007 -3.772,-1.8828 0.4354,1.2413 3.0824,3.85 4.5853,4.5306 z m -57.6731,0.1046 -9.099,-28.5522 h -4.1607 v -5.9545 h 14.3479 v 5.9545 h -4.4598 l 6.5044,20.4576 6.4684,-20.4576 h -3.7066 v -5.9545 h 16.3565 v 5.9545 h -3.7063 l 6.4684,20.4576 6.4805,-20.4576 h -4.6511 v -5.9545 h 15.2805 v 5.9545 h -4.8785 l -9.0629,28.5522 h -6.2413 l -7.7598,-24.5231 -7.9033,24.5231 z m 89.1839,-6.5285 v -22.0237 h -6.8151 v -5.9545 h 12.1238 v 7.6402 c 0.7534,-1.9848 1.7935,-3.6349 3.1206,-4.9379 1.3391,-1.3153 2.7502,-2.1762 4.2327,-2.5827 1.4945,-0.4184 3.5272,-0.6216 6.0979,-0.6216 h 1.7575 v 6.7433 h -1.3272 c -3.3956,0 -5.9184,0.3348 -7.5923,1.0162 -1.6738,0.6699 -2.9055,1.9012 -3.7185,3.6828 -0.801,1.7816 -1.2075,4.9859 -1.2075,9.589 v 7.4489 h 7.389 v 5.9545 h -20.876 v -5.9545 z m 28.1752,0 V 391.6658 H 377.89 v -5.9541 h 12.6978 v 42.7563 h 5.237 v 5.9545 H 377.89 v -5.9545 z m 57.553,0 v 5.9545 h -12.7696 v -4.9621 c -3.312,3.6947 -7.3533,5.5361 -12.124,5.5361 -4.4119,0 -8.2979,-1.5066 -11.6337,-4.5196 -3.3358,-3.0132 -5.0097,-7.3054 -5.0097,-12.8653 0,-5.5837 1.7215,-9.9958 5.1531,-13.212 3.4317,-3.2284 7.3055,-4.8424 11.6337,-4.8424 4.5794,0 8.5728,1.8173 11.9806,5.4641 v -13.3555 h -6.5284 v -5.9541 h 13.2001 v 42.7563 z m -34.435,-11.0477 c 0,3.7304 1.0522,6.5999 3.1685,8.6088 2.1164,2.0086 4.6511,3.0129 7.5923,3.0129 2.8576,0 5.3805,-1.0522 7.5926,-3.1685 2.2119,-2.1164 3.312,-5.0335 3.312,-8.7642 0,-3.7661 -1.1239,-6.5999 -3.3837,-8.513 -2.2598,-1.9131 -4.7826,-2.8695 -7.5926,-2.8695 -3.0129,0 -5.5477,1.1239 -7.6042,3.3837 -2.0565,2.2479 -3.0849,5.0219 -3.0849,8.3098 z" style="fill:#6e6f70;fill-rule:evenodd" id="path4"/>
    <path d="m 341.638,405.5051 c -0.3557,-0.3948 -0.7288,-0.7741 -1.1177,-1.1367 l -0.0283,-0.0266 -6e-4,-3e-4 c -3.2564,-2.9599 -7.5824,-4.7636 -12.3296,-4.7636 -7.9032,0 -14.6384,4.9995 -17.2162,12.0075 -0.6789,1.9083 -1.0497,3.9629 -1.0497,6.1045 0,6.5948 3.551,12.7213 8.803,15.9358 0.1488,0.0898 0.2991,0.1771 0.4505,0.2627 -9.7648,-19.0201 3.0571,-26.115 6.5653,-29.1914 -5.4519,5.3509 -9.3127,11.7986 -8.5879,18.2066 4.9975,0.4692 10.048,-0.5133 13.2662,-10.2243 1.8181,-5.487 5.2001,-8.0796 11.245,-7.1742 z" style="fill:#009035;fill-rule:evenodd" id="path6"/>
    <g id="Layer1001">
      <path d="m 164.2209,453.8869 c -0.0292,0.1145 -0.068,0.2072 -0.1193,0.2752 -0.0487,0.0683 -0.1242,0.1219 -0.2242,0.1562 -0.0998,0.0366 -0.2291,0.0609 -0.385,0.0731 -0.1584,0.0122 -0.3583,0.017 -0.5995,0.017 -0.2704,0 -0.4898,-0.005 -0.6531,-0.017 -0.1658,-0.0122 -0.2948,-0.0365 -0.39,-0.0731 -0.095,-0.0343 -0.1633,-0.0879 -0.207,-0.1562 -0.0416,-0.068 -0.0757,-0.1607 -0.1,-0.2752 l -1.4791,-5.8587 h -0.0148 l -1.3989,5.8587 c -0.0244,0.1097 -0.0561,0.1998 -0.0998,0.2681 -0.0413,0.0681 -0.1097,0.1219 -0.2024,0.1607 -0.0927,0.0392 -0.2194,0.0635 -0.3775,0.0757 -0.161,0.0122 -0.3705,0.017 -0.6313,0.017 -0.2778,0 -0.4972,-0.005 -0.6605,-0.017 -0.1633,-0.0122 -0.2948,-0.0365 -0.3897,-0.0731 -0.0953,-0.0343 -0.1633,-0.0879 -0.2073,-0.1562 -0.0413,-0.068 -0.0779,-0.1607 -0.1048,-0.2752 l -2.0982,-8.064 c -0.044,-0.1729 -0.0658,-0.307 -0.0706,-0.4045 -0.005,-0.0975 0.0218,-0.1732 0.0802,-0.2243 0.0609,-0.0535 0.1585,-0.0853 0.2925,-0.0975 0.1364,-0.0122 0.324,-0.017 0.5655,-0.017 0.224,0 0.3994,0.002 0.5313,0.01 0.1315,0.007 0.229,0.0243 0.2948,0.0513 0.0657,0.0266 0.1119,0.0632 0.1363,0.1145 0.0221,0.0487 0.0417,0.1193 0.0561,0.2095 l 1.6231,7.0795 h 0.007 l 1.6838,-7.0282 c 0.0196,-0.0902 0.0439,-0.1659 0.0757,-0.222 0.0292,-0.0584 0.0828,-0.1023 0.1559,-0.1315 0.0731,-0.0318 0.1755,-0.0536 0.3047,-0.0658 0.1267,-0.0122 0.2996,-0.017 0.5142,-0.017 0.2291,0 0.4093,0.005 0.5457,0.0145 0.1366,0.01 0.2415,0.0295 0.3143,0.0609 0.0732,0.0318 0.127,0.0757 0.1611,0.1318 0.034,0.0559 0.0584,0.1338 0.0779,0.2291 l 1.745,7.0282 h 0.0145 l 1.6084,-7.0574 c 0.0147,-0.0757 0.0343,-0.1415 0.0561,-0.1976 0.0244,-0.0536 0.0706,-0.0975 0.1363,-0.1267 0.0683,-0.0318 0.1633,-0.0536 0.2877,-0.0658 0.1242,-0.0122 0.2974,-0.017 0.5216,-0.017 0.212,0 0.3753,0.005 0.4921,0.017 0.1171,0.0122 0.1999,0.044 0.2534,0.0975 0.0513,0.0511 0.0757,0.1293 0.0683,0.2316 -0.007,0.1024 -0.0317,0.2413 -0.0754,0.419 z m 11.5716,-3.0147 c 0,0.5412 -0.0708,1.0358 -0.2145,1.4842 -0.1438,0.4459 -0.3583,0.8312 -0.6506,1.1552 -0.29,0.324 -0.6531,0.5726 -1.0919,0.7506 -0.4385,0.1754 -0.9505,0.263 -1.5352,0.263 -0.5678,0 -1.0602,-0.0779 -1.4794,-0.2364 -0.419,-0.1559 -0.7677,-0.3849 -1.0429,-0.6845 -0.2755,-0.3 -0.4802,-0.6679 -0.6143,-1.1064 -0.1338,-0.4363 -0.1998,-0.936 -0.1998,-1.499 0,-0.5408 0.0731,-1.038 0.2171,-1.4865 0.146,-0.4507 0.3631,-0.8359 0.6554,-1.1576 0.29,-0.3192 0.6531,-0.5678 1.0893,-0.7455 0.4337,-0.1755 0.9457,-0.2634 1.5305,-0.2634 0.5726,0 1.0675,0.078 1.4864,0.2316 0.4193,0.1559 0.7654,0.3827 1.0384,0.6823 0.2752,0.2999 0.4776,0.6679 0.6117,1.1064 0.1341,0.4362 0.1998,0.9382 0.1998,1.506 z m -1.8425,0.0709 c 0,-0.3144 -0.0244,-0.6046 -0.0754,-0.8677 -0.0513,-0.2656 -0.1341,-0.4946 -0.256,-0.6897 -0.1193,-0.195 -0.2777,-0.3483 -0.475,-0.458 -0.1999,-0.1097 -0.4485,-0.1633 -0.7507,-0.1633 -0.2681,0 -0.502,0.0487 -0.7044,0.1462 -0.1998,0.0973 -0.3656,0.2413 -0.4946,0.4289 -0.1293,0.1877 -0.2268,0.4142 -0.29,0.6775 -0.0658,0.2656 -0.0975,0.5652 -0.0975,0.904 0,0.3143 0.0266,0.6043 0.0779,0.8677 0.0536,0.2656 0.1389,0.4946 0.256,0.6896 0.1168,0.1951 0.2753,0.3461 0.4777,0.4533 0.1998,0.1071 0.4484,0.1607 0.7455,0.1607 0.2729,0 0.5094,-0.0487 0.7117,-0.1463 0.1999,-0.0972 0.3654,-0.2386 0.4947,-0.4237 0.1292,-0.1877 0.2242,-0.4119 0.2877,-0.6752 0.0607,-0.2657 0.0924,-0.5653 0.0924,-0.904 z m 9.646,-2.6005 c 0,0.1706 -0.005,0.3121 -0.0144,0.4218 -0.01,0.1097 -0.0244,0.1947 -0.0414,0.2557 -0.0196,0.0609 -0.0465,0.1048 -0.0757,0.1292 -0.0317,0.0244 -0.0706,0.034 -0.1193,0.034 -0.0366,0 -0.0805,-0.007 -0.1293,-0.0243 -0.0462,-0.017 -0.0998,-0.0341 -0.1607,-0.0536 -0.0587,-0.0193 -0.1245,-0.0366 -0.195,-0.0536 -0.0732,-0.017 -0.1511,-0.0244 -0.2365,-0.0244 -0.0997,0 -0.1998,0.0196 -0.2996,0.061 -0.1,0.0414 -0.2046,0.1023 -0.3121,0.1902 -0.1071,0.0853 -0.2194,0.1998 -0.3362,0.341 -0.117,0.144 -0.2412,0.3195 -0.3753,0.5289 v 3.9748 c 0,0.0462 -0.0147,0.0876 -0.0439,0.1241 -0.0266,0.0366 -0.0754,0.0658 -0.1463,0.0902 -0.068,0.0221 -0.1607,0.0416 -0.2729,0.0538 -0.1146,0.0122 -0.2608,0.017 -0.436,0.017 -0.1755,0 -0.3217,-0.005 -0.4363,-0.017 -0.1122,-0.0122 -0.2049,-0.0317 -0.2729,-0.0538 -0.0709,-0.0244 -0.1197,-0.0536 -0.1463,-0.0902 -0.0292,-0.0365 -0.0439,-0.0779 -0.0439,-0.1241 v -6.3751 c 0,-0.0465 0.0121,-0.0879 0.0365,-0.1245 0.0218,-0.0366 0.0658,-0.0657 0.1267,-0.0901 0.0635,-0.0219 0.1415,-0.0414 0.239,-0.0536 0.0975,-0.0122 0.2217,-0.017 0.3679,-0.017 0.1534,0 0.2778,0.005 0.3776,0.017 0.1001,0.0122 0.178,0.0317 0.2341,0.0536 0.0536,0.0244 0.0925,0.0535 0.1168,0.0901 0.0244,0.0366 0.0366,0.078 0.0366,0.1245 v 0.7942 c 0.1658,-0.2387 0.3243,-0.4337 0.4705,-0.5873 0.1486,-0.1534 0.29,-0.2778 0.4216,-0.368 0.134,-0.0901 0.2681,-0.1533 0.4019,-0.1876 0.1318,-0.0366 0.2659,-0.0536 0.3997,-0.0536 0.0609,0 0.1293,0.003 0.1998,0.01 0.0709,0.007 0.1463,0.0193 0.222,0.0366 0.0754,0.017 0.1437,0.0363 0.1998,0.0559 0.0584,0.0221 0.0998,0.0439 0.1267,0.0683 0.0244,0.0243 0.0437,0.0513 0.0559,0.0779 0.0122,0.0292 0.0221,0.0683 0.0317,0.1194 0.01,0.0487 0.017,0.1244 0.0221,0.2242 0.005,0.1 0.007,0.2341 0.007,0.4045 z m 5.1843,5.7807 c 0,0.0462 -0.0147,0.0876 -0.0439,0.1241 -0.0267,0.0366 -0.0754,0.0658 -0.1463,0.0902 -0.068,0.0221 -0.1607,0.0416 -0.273,0.0538 -0.1145,0.0122 -0.2608,0.017 -0.4359,0.017 -0.1755,0 -0.3218,-0.005 -0.4363,-0.017 -0.1122,-0.0122 -0.2049,-0.0317 -0.273,-0.0538 -0.0708,-0.0244 -0.1196,-0.0536 -0.1462,-0.0902 -0.0292,-0.0365 -0.044,-0.0779 -0.044,-0.1241 v -9.3946 c 0,-0.0488 0.0148,-0.0901 0.044,-0.1293 0.0266,-0.0365 0.0754,-0.0705 0.1462,-0.0949 0.0681,-0.027 0.1608,-0.0462 0.273,-0.061 0.1145,-0.0147 0.2608,-0.0218 0.4363,-0.0218 0.1751,0 0.3214,0.007 0.4359,0.0218 0.1123,0.0148 0.205,0.034 0.273,0.061 0.0709,0.0244 0.1196,0.0584 0.1463,0.0949 0.0292,0.0392 0.0439,0.0805 0.0439,0.1293 z m 10.114,0 c 0,0.051 -0.0122,0.0949 -0.0365,0.1315 -0.0219,0.0366 -0.0635,0.0658 -0.1194,0.0901 -0.0587,0.0222 -0.1366,0.0392 -0.2341,0.0488 -0.0975,0.01 -0.2169,0.0147 -0.358,0.0147 -0.1537,0 -0.2778,-0.005 -0.3731,-0.0147 -0.0949,-0.01 -0.1706,-0.0266 -0.2316,-0.0488 -0.0584,-0.0243 -0.1023,-0.0561 -0.1267,-0.0901 -0.0266,-0.0366 -0.0414,-0.0805 -0.0414,-0.1341 v -0.7089 c -0.3265,0.3532 -0.6726,0.6262 -1.0306,0.8212 -0.3609,0.195 -0.758,0.2922 -1.1968,0.2922 -0.4847,0 -0.8966,-0.0949 -1.2305,-0.2826 -0.3362,-0.1876 -0.6092,-0.4411 -0.8212,-0.7602 -0.2121,-0.317 -0.3657,-0.6897 -0.4607,-1.1163 -0.0949,-0.4264 -0.1437,-0.8748 -0.1437,-1.3451 0,-0.5655 0.061,-1.0749 0.1826,-1.5281 0.1219,-0.4507 0.2973,-0.836 0.5315,-1.1551 0.2338,-0.3192 0.5238,-0.563 0.8722,-0.7359 0.3461,-0.1707 0.7458,-0.256 1.199,-0.256 0.3558,0 0.6801,0.0732 0.9701,0.2169 0.2922,0.1462 0.5799,0.3583 0.8651,0.6386 v -3.4435 c 0,-0.0488 0.0122,-0.0902 0.0388,-0.1293 0.027,-0.0365 0.0732,-0.0706 0.144,-0.0949 0.0681,-0.027 0.1607,-0.0462 0.2727,-0.061 0.1148,-0.0144 0.2608,-0.0218 0.4363,-0.0218 0.1754,0 0.3217,0.007 0.4362,0.0218 0.1123,0.0148 0.2047,0.034 0.2707,0.061 0.0658,0.0243 0.1145,0.0584 0.1412,0.0949 0.0292,0.0391 0.0439,0.0805 0.0439,0.1293 z m -1.7838,-4.2574 c -0.256,-0.3243 -0.5046,-0.5703 -0.7384,-0.7435 -0.2364,-0.1704 -0.4825,-0.2557 -0.741,-0.2557 -0.2313,0 -0.4337,0.0584 -0.6018,0.1755 -0.1707,0.1168 -0.3047,0.2704 -0.4071,0.4654 -0.1023,0.1973 -0.1802,0.4142 -0.229,0.6531 -0.0513,0.2413 -0.0757,0.4873 -0.0757,0.7384 0,0.2682 0.0221,0.5264 0.0635,0.7773 0.0439,0.2534 0.1145,0.4776 0.212,0.6752 0.0976,0.1973 0.2265,0.3558 0.3898,0.4751 0.161,0.1193 0.3657,0.178 0.6143,0.178 0.1219,0 0.2438,-0.017 0.3605,-0.0536 0.1171,-0.0365 0.2342,-0.0926 0.3561,-0.1754 0.1216,-0.0805 0.246,-0.1854 0.375,-0.3169 0.1293,-0.1316 0.2707,-0.29 0.4218,-0.4802 z m 16.6351,1.0063 c 0,0.5412 -0.0709,1.0358 -0.2146,1.4842 -0.1437,0.4459 -0.3583,0.8312 -0.6505,1.1552 -0.29,0.324 -0.6531,0.5726 -1.0919,0.7506 -0.4386,0.1754 -0.9505,0.263 -1.5353,0.263 -0.5678,0 -1.0601,-0.0779 -1.4794,-0.2364 -0.4189,-0.1559 -0.7676,-0.3849 -1.0428,-0.6845 -0.2756,-0.3 -0.4802,-0.6679 -0.6143,-1.1064 -0.1338,-0.4363 -0.1999,-0.936 -0.1999,-1.499 0,-0.5408 0.0732,-1.038 0.2172,-1.4865 0.146,-0.4507 0.3631,-0.8359 0.6553,-1.1576 0.29,-0.3192 0.6532,-0.5678 1.0894,-0.7455 0.4337,-0.1755 0.9456,-0.2634 1.5304,-0.2634 0.5726,0 1.0676,0.078 1.4865,0.2316 0.4193,0.1559 0.7654,0.3827 1.0383,0.6823 0.2753,0.2999 0.4777,0.6679 0.6118,1.1064 0.134,0.4362 0.1998,0.9382 0.1998,1.506 z m -1.8425,0.0709 c 0,-0.3144 -0.0244,-0.6046 -0.0754,-0.8677 -0.0513,-0.2656 -0.1341,-0.4946 -0.256,-0.6897 -0.1193,-0.195 -0.2778,-0.3483 -0.4751,-0.458 -0.1998,-0.1097 -0.4484,-0.1633 -0.7506,-0.1633 -0.2681,0 -0.502,0.0487 -0.7044,0.1462 -0.1998,0.0973 -0.3657,0.2413 -0.4946,0.4289 -0.1293,0.1877 -0.2268,0.4142 -0.29,0.6775 -0.0658,0.2656 -0.0975,0.5652 -0.0975,0.904 0,0.3143 0.0266,0.6043 0.0779,0.8677 0.0536,0.2656 0.1389,0.4946 0.256,0.6896 0.1168,0.1951 0.2752,0.3461 0.4776,0.4533 0.1999,0.1071 0.4485,0.1607 0.7455,0.1607 0.273,0 0.5094,-0.0487 0.7118,-0.1463 0.1999,-0.0972 0.3654,-0.2386 0.4947,-0.4237 0.1292,-0.1877 0.2242,-0.4119 0.2877,-0.6752 0.0606,-0.2657 0.0924,-0.5653 0.0924,-0.904 z m 13.5354,-5.6344 c 0,0.229 -0.0144,0.3923 -0.0462,0.4872 -0.0317,0.0953 -0.0805,0.144 -0.1536,0.144 -0.0315,0 -0.0681,-0.007 -0.1094,-0.0221 -0.0392,-0.0144 -0.0902,-0.0317 -0.1489,-0.051 -0.0584,-0.0196 -0.1267,-0.0343 -0.2021,-0.0488 -0.0757,-0.0147 -0.1632,-0.0221 -0.2633,-0.0221 -0.273,0 -0.4703,0.0854 -0.5922,0.256 -0.1193,0.1707 -0.1802,0.4533 -0.1802,0.8481 v 0.6069 h 1.1503 c 0.0436,0 0.0802,0.0122 0.1167,0.0366 0.0343,0.0244 0.0658,0.0632 0.0927,0.1168 0.0244,0.0561 0.044,0.1315 0.0562,0.2268 0.0121,0.0949 0.017,0.212 0.017,0.3509 0,0.263 -0.0244,0.4507 -0.0732,0.5629 -0.051,0.112 -0.117,0.1681 -0.2024,0.1681 h -1.1573 v 5.1543 c 0,0.0462 -0.0148,0.0876 -0.044,0.1241 -0.0266,0.0366 -0.0754,0.0658 -0.1414,0.0902 -0.0681,0.0221 -0.1608,0.0416 -0.2778,0.0538 -0.1168,0.0122 -0.2608,0.017 -0.4312,0.017 -0.178,0 -0.3243,-0.005 -0.4411,-0.017 -0.117,-0.0122 -0.2097,-0.0317 -0.2777,-0.0538 -0.0661,-0.0244 -0.1148,-0.0536 -0.1415,-0.0902 -0.0292,-0.0365 -0.0439,-0.0779 -0.0439,-0.1241 v -5.1543 h -2.3542 v 5.1543 c 0,0.0462 -0.0145,0.0876 -0.0437,0.1241 -0.0269,0.0366 -0.0756,0.0658 -0.1462,0.0902 -0.0683,0.0221 -0.1633,0.0416 -0.2804,0.0538 -0.117,0.0122 -0.2608,0.017 -0.4314,0.017 -0.1729,0 -0.3166,-0.005 -0.4337,-0.017 -0.1171,-0.0122 -0.212,-0.0317 -0.2804,-0.0538 -0.068,-0.0244 -0.1167,-0.0536 -0.1437,-0.0902 -0.0266,-0.0365 -0.0388,-0.0779 -0.0388,-0.1241 v -5.1543 h -0.7971 c -0.0901,0 -0.1585,-0.0561 -0.2021,-0.1681 -0.0465,-0.1122 -0.0683,-0.2999 -0.0683,-0.5629 0,-0.1389 0.005,-0.256 0.017,-0.3509 0.0122,-0.0953 0.0292,-0.1707 0.0513,-0.2268 0.0218,-0.0536 0.0487,-0.0924 0.0853,-0.1168 0.034,-0.0244 0.0754,-0.0366 0.1242,-0.0366 h 0.7897 v -0.4705 c 0,-0.4264 0.0436,-0.8017 0.1315,-1.1259 0.0876,-0.3215 0.2242,-0.5922 0.4071,-0.8091 0.1851,-0.2143 0.4167,-0.3775 0.6945,-0.4872 0.2778,-0.1097 0.6091,-0.1633 0.9893,-0.1633 0.2097,0 0.3974,0.017 0.5655,0.0536 0.1655,0.0365 0.3095,0.0754 0.4289,0.1193 0.0561,0.017 0.1023,0.0439 0.134,0.0731 0.034,0.0318 0.061,0.078 0.0828,0.1364 0.0218,0.0609 0.0366,0.1366 0.0462,0.2293 0.01,0.095 0.0147,0.2095 0.0147,0.3484 0,0.2339 -0.0147,0.3997 -0.0462,0.4946 -0.0317,0.0953 -0.083,0.1415 -0.1536,0.1415 -0.034,0 -0.0706,-0.005 -0.1145,-0.0196 -0.0414,-0.0144 -0.0927,-0.0317 -0.1488,-0.051 -0.0559,-0.0196 -0.1242,-0.0366 -0.2021,-0.0539 -0.0805,-0.017 -0.1659,-0.0243 -0.2608,-0.0243 -0.2756,0 -0.4729,0.0853 -0.5922,0.2585 -0.1193,0.1729 -0.178,0.4555 -0.178,0.8481 v 0.502 h 2.3542 v -0.5655 c 0,-0.4337 0.0462,-0.8115 0.1366,-1.1355 0.0901,-0.3243 0.2265,-0.5948 0.4093,-0.8116 0.1829,-0.2169 0.4142,-0.3779 0.692,-0.485 0.278,-0.1072 0.6094,-0.1607 0.9944,-0.1607 0.2046,0 0.39,0.017 0.5604,0.051 0.1683,0.0317 0.3121,0.0709 0.4314,0.1145 0.0513,0.017 0.095,0.0439 0.1315,0.078 0.0366,0.0343 0.0635,0.0779 0.0831,0.1366 0.017,0.0561 0.0314,0.1341 0.0414,0.229 0.01,0.095 0.0144,0.2121 0.0144,0.351 z m 14.1934,6.2824 c 0,0.3291 -0.0465,0.6264 -0.1367,0.8946 -0.0901,0.2656 -0.2143,0.502 -0.3727,0.7067 -0.161,0.2046 -0.3509,0.3801 -0.5703,0.5286 -0.2217,0.1489 -0.4655,0.2682 -0.7311,0.3657 -0.2656,0.095 -0.5508,0.1658 -0.8529,0.2095 -0.3022,0.0465 -0.6387,0.0683 -1.0089,0.0683 h -2.4542 c -0.1559,0 -0.2875,-0.0462 -0.3946,-0.1389 -0.1074,-0.0927 -0.161,-0.2438 -0.161,-0.4533 v -8.0566 c 0,-0.2097 0.0536,-0.3608 0.161,-0.4532 0.1071,-0.0927 0.2387,-0.1389 0.3946,-0.1389 h 2.3153 c 0.5652,0 1.0429,0.0484 1.4352,0.1437 0.3926,0.0949 0.7214,0.2387 0.9896,0.4311 0.2704,0.1928 0.4751,0.4363 0.6165,0.7314 0.1437,0.2948 0.2146,0.6409 0.2146,1.0406 0,0.2242 -0.0295,0.4337 -0.0853,0.631 -0.0562,0.1975 -0.1415,0.3778 -0.2486,0.5385 -0.1097,0.1633 -0.2438,0.3048 -0.4045,0.4289 -0.1585,0.1245 -0.3388,0.2242 -0.5437,0.2999 0.2608,0.0488 0.5045,0.1316 0.7262,0.2509 0.222,0.1196 0.4144,0.273 0.5777,0.4606 0.1656,0.1877 0.2948,0.4096 0.3898,0.6605 0.0952,0.2534 0.144,0.536 0.144,0.8504 z m -2.4273,-3.8942 c 0,-0.1852 -0.0292,-0.351 -0.0854,-0.4995 -0.0561,-0.1463 -0.1414,-0.2707 -0.2559,-0.368 -0.1145,-0.0975 -0.2583,-0.1706 -0.4312,-0.2242 -0.1732,-0.0513 -0.4048,-0.0779 -0.6947,-0.0779 h -0.9454 v 2.3978 h 1.0454 c 0.2704,0 0.4873,-0.0317 0.6483,-0.0975 0.1607,-0.0632 0.2948,-0.1511 0.402,-0.2631 0.1074,-0.1122 0.1853,-0.2437 0.2389,-0.3923 0.051,-0.1511 0.078,-0.3073 0.078,-0.4753 z m 0.4824,3.9625 c 0,-0.2143 -0.0365,-0.4071 -0.1071,-0.5774 -0.0706,-0.1684 -0.1755,-0.3096 -0.3144,-0.4241 -0.1366,-0.1145 -0.3121,-0.2024 -0.5264,-0.2656 -0.2146,-0.0609 -0.4924,-0.0927 -0.8359,-0.0927 h -1.1112 v 2.632 h 1.355 c 0.2607,0 0.4799,-0.0269 0.6604,-0.0828 0.1778,-0.0538 0.3314,-0.1366 0.4629,-0.2438 0.1293,-0.1071 0.2316,-0.2389 0.307,-0.3996 0.0732,-0.1585 0.1097,-0.3413 0.1097,-0.546 z m 7.4359,2.4639 c 0,0.0462 -0.0148,0.0876 -0.044,0.1241 -0.0266,0.0366 -0.0754,0.0658 -0.1462,0.0902 -0.0681,0.0221 -0.1608,0.0416 -0.273,0.0538 -0.1145,0.0122 -0.2608,0.017 -0.436,0.017 -0.1754,0 -0.3217,-0.005 -0.4362,-0.017 -0.1123,-0.0122 -0.205,-0.0317 -0.273,-0.0538 -0.0709,-0.0244 -0.1196,-0.0536 -0.1463,-0.0902 -0.0292,-0.0365 -0.0439,-0.0779 -0.0439,-0.1241 v -6.3607 c 0,-0.0462 0.0147,-0.0876 0.0439,-0.1241 0.0267,-0.0366 0.0754,-0.0684 0.1463,-0.0927 0.068,-0.0267 0.1607,-0.0462 0.273,-0.061 0.1145,-0.0144 0.2608,-0.0218 0.4362,-0.0218 0.1752,0 0.3215,0.007 0.436,0.0218 0.1122,0.0148 0.2049,0.0343 0.273,0.061 0.0708,0.0243 0.1196,0.0561 0.1462,0.0927 0.0292,0.0365 0.044,0.0779 0.044,0.1241 z m 0.1462,-8.5394 c 0,0.3631 -0.0731,0.6117 -0.2219,0.7506 -0.1486,0.1389 -0.4215,0.2072 -0.8235,0.2072 -0.4048,0 -0.68,-0.0657 -0.8189,-0.1998 -0.1415,-0.1341 -0.212,-0.3753 -0.212,-0.7214 0,-0.3631 0.0731,-0.614 0.2194,-0.7555 0.1437,-0.1389 0.4189,-0.2094 0.826,-0.2094 0.3997,0 0.6726,0.0683 0.8164,0.2046 0.1437,0.1341 0.2145,0.3753 0.2145,0.7237 z m 10.3626,5.2883 c 0,0.5412 -0.0708,1.0358 -0.2145,1.4842 -0.1438,0.4459 -0.3583,0.8312 -0.6506,1.1552 -0.29,0.324 -0.6531,0.5726 -1.0919,0.7506 -0.4385,0.1754 -0.9504,0.263 -1.5352,0.263 -0.5678,0 -1.0602,-0.0779 -1.4794,-0.2364 -0.419,-0.1559 -0.7677,-0.3849 -1.0429,-0.6845 -0.2755,-0.3 -0.4802,-0.6679 -0.6143,-1.1064 -0.1338,-0.4363 -0.1998,-0.936 -0.1998,-1.499 0,-0.5408 0.0731,-1.038 0.2171,-1.4865 0.146,-0.4507 0.3631,-0.8359 0.6554,-1.1576 0.29,-0.3192 0.6531,-0.5678 1.0893,-0.7455 0.4337,-0.1755 0.9457,-0.2634 1.5305,-0.2634 0.5726,0 1.0675,0.078 1.4865,0.2316 0.4192,0.1559 0.7653,0.3827 1.0383,0.6823 0.2752,0.2999 0.4776,0.6679 0.6117,1.1064 0.1341,0.4362 0.1998,0.9382 0.1998,1.506 z m -1.8425,0.0709 c 0,-0.3144 -0.0243,-0.6046 -0.0754,-0.8677 -0.0513,-0.2656 -0.1341,-0.4946 -0.2559,-0.6897 -0.1194,-0.195 -0.2778,-0.3483 -0.4751,-0.458 -0.1999,-0.1097 -0.4485,-0.1633 -0.7506,-0.1633 -0.2682,0 -0.5021,0.0487 -0.7045,0.1462 -0.1998,0.0973 -0.3656,0.2413 -0.4946,0.4289 -0.1293,0.1877 -0.2268,0.4142 -0.29,0.6775 -0.0657,0.2656 -0.0975,0.5652 -0.0975,0.904 0,0.3143 0.0267,0.6043 0.078,0.8677 0.0535,0.2656 0.1389,0.4946 0.2559,0.6896 0.1168,0.1951 0.2753,0.3461 0.4777,0.4533 0.1998,0.1071 0.4484,0.1607 0.7455,0.1607 0.273,0 0.5094,-0.0487 0.7118,-0.1463 0.1998,-0.0972 0.3653,-0.2386 0.4946,-0.4237 0.1293,-0.1877 0.2242,-0.4119 0.2877,-0.6752 0.0607,-0.2657 0.0924,-0.5653 0.0924,-0.904 z m 11.5909,3.1802 c 0,0.051 -0.0122,0.0949 -0.0366,0.1315 -0.0218,0.0366 -0.0635,0.0658 -0.1193,0.0901 -0.0587,0.0222 -0.1366,0.0392 -0.2342,0.0488 -0.0975,0.01 -0.2168,0.0147 -0.358,0.0147 -0.1536,0 -0.2778,-0.005 -0.373,-0.0147 -0.095,-0.01 -0.1707,-0.0266 -0.2316,-0.0488 -0.0584,-0.0243 -0.1023,-0.0561 -0.1267,-0.0901 -0.0267,-0.0366 -0.0414,-0.0805 -0.0414,-0.1341 v -0.7089 c -0.3265,0.3532 -0.6727,0.6262 -1.0307,0.8212 -0.3608,0.195 -0.758,0.2922 -1.1968,0.2922 -0.4847,0 -0.8966,-0.0949 -1.2305,-0.2826 -0.3362,-0.1876 -0.6091,-0.4411 -0.8212,-0.7602 -0.212,-0.317 -0.3656,-0.6897 -0.4606,-1.1163 -0.095,-0.4264 -0.1437,-0.8748 -0.1437,-1.3451 0,-0.5655 0.0609,-1.0749 0.1825,-1.5281 0.1219,-0.4507 0.2974,-0.836 0.5315,-1.1551 0.2339,-0.3192 0.5239,-0.563 0.8722,-0.7359 0.3462,-0.1707 0.7458,-0.256 1.1991,-0.256 0.3558,0 0.68,0.0732 0.97,0.2169 0.2923,0.1462 0.58,0.3583 0.8652,0.6386 v -3.4435 c 0,-0.0488 0.0121,-0.0902 0.0388,-0.1293 0.0269,-0.0365 0.0731,-0.0706 0.144,-0.0949 0.068,-0.027 0.1607,-0.0462 0.2727,-0.061 0.1148,-0.0144 0.2608,-0.0218 0.4362,-0.0218 0.1755,0 0.3218,0.007 0.4363,0.0218 0.1122,0.0148 0.2046,0.034 0.2707,0.061 0.0658,0.0243 0.1145,0.0584 0.1412,0.0949 0.0292,0.0391 0.0439,0.0805 0.0439,0.1293 z m -1.7838,-4.2574 c -0.256,-0.3243 -0.5046,-0.5703 -0.7385,-0.7435 -0.2364,-0.1704 -0.4824,-0.2557 -0.7409,-0.2557 -0.2314,0 -0.4338,0.0584 -0.6018,0.1755 -0.1707,0.1168 -0.3048,0.2704 -0.4071,0.4654 -0.1023,0.1973 -0.1803,0.4142 -0.229,0.6531 -0.0513,0.2413 -0.0757,0.4873 -0.0757,0.7384 0,0.2682 0.0221,0.5264 0.0635,0.7773 0.0439,0.2534 0.1145,0.4776 0.212,0.6752 0.0975,0.1973 0.2265,0.3558 0.3898,0.4751 0.161,0.1193 0.3656,0.178 0.6142,0.178 0.1219,0 0.2438,-0.017 0.3606,-0.0536 0.1171,-0.0365 0.2341,-0.0926 0.356,-0.1754 0.1216,-0.0805 0.2461,-0.1854 0.3751,-0.3169 0.1292,-0.1316 0.2707,-0.29 0.4218,-0.4802 z m 11.7518,0.887 c 0,0.2194 -0.0487,0.3801 -0.1462,0.485 -0.0976,0.1049 -0.2316,0.1584 -0.4045,0.1584 h -3.8798 c 0,0.2705 0.0317,0.5143 0.0975,0.7359 0.0632,0.2194 0.1655,0.4071 0.3044,0.5604 0.1415,0.1537 0.3218,0.2707 0.5437,0.351 0.2217,0.0805 0.4847,0.1218 0.7943,0.1218 0.3143,0 0.5899,-0.0218 0.8285,-0.0683 0.2365,-0.0462 0.4437,-0.0949 0.6166,-0.1511 0.1732,-0.0558 0.3169,-0.1046 0.4314,-0.151 0.1145,-0.0462 0.2072,-0.0681 0.2778,-0.0681 0.0439,0 0.0805,0.007 0.1072,0.0244 0.0294,0.017 0.0538,0.0462 0.0731,0.0901 0.0173,0.0414 0.0317,0.1024 0.0391,0.1803 0.007,0.078 0.01,0.178 0.01,0.2948 0,0.1049 -0.002,0.1951 -0.007,0.2682 -0.005,0.0731 -0.0122,0.1363 -0.0218,0.1876 -0.01,0.0536 -0.0219,0.0976 -0.0414,0.1316 -0.0196,0.0365 -0.044,0.0706 -0.0757,0.1049 -0.0315,0.0317 -0.1145,0.0779 -0.2534,0.1363 -0.1389,0.0587 -0.3144,0.1145 -0.5287,0.1706 -0.2146,0.0562 -0.4584,0.1049 -0.7336,0.1463 -0.2752,0.0414 -0.5703,0.0632 -0.8847,0.0632 -0.5678,0 -1.0624,-0.0706 -1.489,-0.2143 -0.4241,-0.1414 -0.7798,-0.3583 -1.0673,-0.6483 -0.2851,-0.2899 -0.4972,-0.6579 -0.6386,-1.0989 -0.1389,-0.4437 -0.2095,-0.9627 -0.2095,-1.5574 0,-0.5652 0.0731,-1.0746 0.2217,-1.5304 0.1462,-0.4533 0.3608,-0.8382 0.6434,-1.1551 0.2804,-0.317 0.6214,-0.5582 1.0236,-0.7237 0.4045,-0.1684 0.8578,-0.2512 1.3624,-0.2512 0.5334,0 0.9892,0.078 1.3671,0.2364 0.3801,0.1559 0.6897,0.3753 0.9332,0.6531 0.2412,0.2778 0.4218,0.6092 0.5363,0.9896 0.1145,0.3801 0.1706,0.7943 0.1706,1.2427 z m -1.7402,-0.5117 c 0.0148,-0.5045 -0.0876,-0.9017 -0.3047,-1.1894 -0.2168,-0.29 -0.5505,-0.4337 -1.004,-0.4337 -0.2291,0 -0.4289,0.0439 -0.597,0.1293 -0.1706,0.085 -0.3118,0.1995 -0.4241,0.3458 -0.1119,0.1463 -0.1972,0.3169 -0.2556,0.5142 -0.061,0.1998 -0.0953,0.4096 -0.1049,0.6338 z" style="fill:#868789;fill-rule:evenodd" id="path8"/>
      <path d="m 284.8479,448.194 c 0,0.2291 -0.0267,0.3972 -0.0802,0.5069 -0.0514,0.1097 -0.1146,0.1658 -0.1928,0.1658 h -0.7481 c 0.1049,0.1145 0.1781,0.2438 0.2243,0.3875 0.0462,0.1463 0.0683,0.2974 0.0683,0.4533 0,0.3705 -0.0635,0.6993 -0.1854,0.987 -0.1242,0.2874 -0.3022,0.5312 -0.5335,0.7285 -0.2293,0.1976 -0.5094,0.3461 -0.8337,0.4484 -0.3265,0.1024 -0.6896,0.1537 -1.0893,0.1537 -0.2047,0 -0.3997,-0.0244 -0.5848,-0.0757 -0.1877,-0.0488 -0.3291,-0.1072 -0.4289,-0.1729 -0.0584,0.0609 -0.1097,0.1341 -0.1536,0.2216 -0.0462,0.0854 -0.0681,0.1803 -0.0681,0.2852 0,0.1389 0.061,0.2534 0.1826,0.3413 0.1196,0.0876 0.29,0.1363 0.5094,0.146 l 1.55,0.0561 c 0.3605,0.0147 0.6848,0.0658 0.9674,0.1536 0.2826,0.0876 0.5216,0.2121 0.7141,0.3728 0.1924,0.1585 0.3413,0.3509 0.4436,0.5729 0.1023,0.2239 0.1534,0.4799 0.1534,0.7651 0,0.3143 -0.0706,0.6091 -0.207,0.8869 -0.1389,0.2804 -0.3461,0.5216 -0.6216,0.7263 -0.2778,0.2049 -0.6239,0.3656 -1.0406,0.485 -0.4167,0.1193 -0.9017,0.178 -1.4596,0.178 -0.5411,0 -1.004,-0.044 -1.3892,-0.1293 -0.3824,-0.0853 -0.6971,-0.2046 -0.9406,-0.3557 -0.2463,-0.1537 -0.424,-0.334 -0.5363,-0.546 -0.112,-0.212 -0.1681,-0.4436 -0.1681,-0.697 0,-0.1559 0.0196,-0.307 0.061,-0.4482 0.0414,-0.144 0.1,-0.2803 0.178,-0.4119 0.0779,-0.1292 0.1754,-0.2559 0.29,-0.373 0.1145,-0.1193 0.2435,-0.2339 0.3923,-0.3436 -0.2047,-0.1097 -0.3631,-0.2582 -0.4754,-0.4458 -0.112,-0.1877 -0.1681,-0.3949 -0.1681,-0.6191 0,-0.2804 0.0658,-0.5361 0.1925,-0.7677 0.1292,-0.2315 0.2973,-0.4388 0.502,-0.6264 -0.1681,-0.1656 -0.2996,-0.3654 -0.3994,-0.597 -0.1001,-0.2338 -0.1514,-0.5238 -0.1514,-0.8699 0,-0.3728 0.0661,-0.7044 0.1976,-0.9967 0.1293,-0.2925 0.3118,-0.5386 0.546,-0.741 0.2313,-0.2021 0.5116,-0.3557 0.8333,-0.4629 0.324,-0.1074 0.6823,-0.161 1.0724,-0.161 0.1998,0 0.3923,0.0122 0.5751,0.0343 0.1826,0.0244 0.3532,0.0559 0.5091,0.0975 h 2.0203 c 0.0805,0 0.1463,0.0536 0.1976,0.1582 0.0487,0.1049 0.0754,0.2803 0.0754,0.5289 z m -2.3077,1.5086 c 0,-0.3412 -0.0953,-0.6094 -0.2852,-0.7993 -0.1902,-0.1902 -0.4581,-0.2852 -0.8067,-0.2852 -0.1755,0 -0.3314,0.0292 -0.4629,0.0902 -0.1341,0.0583 -0.2438,0.1388 -0.3339,0.2412 -0.0879,0.1023 -0.1537,0.2216 -0.1951,0.3583 -0.0439,0.1363 -0.0632,0.2778 -0.0632,0.424 0,0.324 0.095,0.58 0.2852,0.7677 0.1899,0.1876 0.4533,0.2826 0.792,0.2826 0.1803,0 0.3387,-0.0292 0.4703,-0.0853 0.134,-0.0584 0.2437,-0.1364 0.3313,-0.2365 0.0902,-0.0997 0.1559,-0.2143 0.2024,-0.3458 0.0437,-0.1318 0.0658,-0.2681 0.0658,-0.4119 z m 0.4215,5.0811 c 0,-0.212 -0.0853,-0.3778 -0.256,-0.4898 -0.1729,-0.1145 -0.4067,-0.178 -0.7066,-0.1854 l -1.2793,-0.0365 c -0.1219,0.0901 -0.222,0.178 -0.2951,0.2608 -0.0754,0.083 -0.1338,0.161 -0.1803,0.2389 -0.0439,0.0754 -0.0731,0.1486 -0.0876,0.2194 -0.0147,0.0706 -0.0221,0.146 -0.0221,0.2217 0,0.2364 0.1196,0.4167 0.3609,0.5408 0.2412,0.1245 0.5799,0.1854 1.0162,0.1854 0.273,0 0.502,-0.0269 0.6871,-0.083 0.1854,-0.0536 0.3339,-0.1267 0.4484,-0.2169 0.1146,-0.0901 0.1951,-0.1899 0.2438,-0.3022 0.0462,-0.1119 0.0706,-0.229 0.0706,-0.3532 z m 9.4609,-6.4411 c 0,0.1706 -0.005,0.3121 -0.0144,0.4218 -0.01,0.1097 -0.0244,0.1947 -0.0414,0.2557 -0.0196,0.0609 -0.0465,0.1048 -0.0757,0.1292 -0.0318,0.0244 -0.0706,0.034 -0.1194,0.034 -0.0365,0 -0.0805,-0.007 -0.1292,-0.0243 -0.0462,-0.017 -0.0998,-0.0341 -0.1607,-0.0536 -0.0587,-0.0193 -0.1245,-0.0366 -0.1951,-0.0536 -0.0731,-0.017 -0.151,-0.0244 -0.2364,-0.0244 -0.0997,0 -0.1998,0.0196 -0.2996,0.061 -0.1001,0.0414 -0.2047,0.1023 -0.3121,0.1902 -0.1071,0.0853 -0.2194,0.1998 -0.3362,0.341 -0.117,0.144 -0.2412,0.3195 -0.3753,0.5289 v 3.9748 c 0,0.0462 -0.0147,0.0876 -0.0439,0.1241 -0.0267,0.0366 -0.0754,0.0658 -0.1463,0.0902 -0.068,0.0221 -0.1607,0.0416 -0.273,0.0538 -0.1145,0.0122 -0.2608,0.017 -0.4359,0.017 -0.1755,0 -0.3218,-0.005 -0.4363,-0.017 -0.1122,-0.0122 -0.2049,-0.0317 -0.273,-0.0538 -0.0708,-0.0244 -0.1196,-0.0536 -0.1462,-0.0902 -0.0292,-0.0365 -0.044,-0.0779 -0.044,-0.1241 v -6.3751 c 0,-0.0465 0.0122,-0.0879 0.0366,-0.1245 0.0218,-0.0366 0.0658,-0.0657 0.1267,-0.0901 0.0635,-0.0219 0.1415,-0.0414 0.239,-0.0536 0.0975,-0.0122 0.2216,-0.017 0.3679,-0.017 0.1534,0 0.2778,0.005 0.3776,0.017 0.1,0.0122 0.178,0.0317 0.2341,0.0536 0.0536,0.0244 0.0924,0.0535 0.1168,0.0901 0.0244,0.0366 0.0366,0.078 0.0366,0.1245 v 0.7942 c 0.1658,-0.2387 0.3243,-0.4337 0.4705,-0.5873 0.1486,-0.1534 0.29,-0.2778 0.4215,-0.368 0.1341,-0.0901 0.2682,-0.1533 0.402,-0.1876 0.1318,-0.0366 0.2659,-0.0536 0.3997,-0.0536 0.0609,0 0.1292,0.003 0.1998,0.01 0.0709,0.007 0.1463,0.0193 0.222,0.0366 0.0754,0.017 0.1437,0.0363 0.1998,0.0559 0.0584,0.0221 0.0998,0.0439 0.1267,0.0683 0.0244,0.0243 0.0437,0.0513 0.0559,0.0779 0.0122,0.0292 0.0221,0.0683 0.0317,0.1194 0.01,0.0487 0.017,0.1244 0.0221,0.2242 0.005,0.1 0.007,0.2341 0.007,0.4045 z m 8.4886,5.8025 c 0,0.0658 -0.0243,0.1171 -0.0705,0.1559 -0.0488,0.0391 -0.1242,0.0661 -0.2265,0.0831 -0.1024,0.017 -0.2537,0.0243 -0.4558,0.0243 -0.2146,0 -0.3705,-0.007 -0.468,-0.0243 -0.0975,-0.017 -0.1681,-0.044 -0.2073,-0.0831 -0.0413,-0.0388 -0.0606,-0.0901 -0.0606,-0.1559 v -0.5068 c -0.2634,0.2803 -0.5607,0.4972 -0.8969,0.6531 -0.3339,0.1559 -0.7067,0.2338 -1.1163,0.2338 -0.3362,0 -0.6483,-0.0436 -0.9309,-0.1315 -0.2826,-0.0876 -0.5264,-0.2194 -0.7336,-0.3923 -0.2069,-0.1755 -0.3679,-0.3901 -0.4824,-0.6457 -0.1146,-0.2586 -0.1707,-0.5582 -0.1707,-0.8995 0,-0.3727 0.0732,-0.6945 0.2172,-0.9674 0.1459,-0.2753 0.3631,-0.4995 0.6505,-0.6798 0.2874,-0.178 0.6435,-0.3095 1.0723,-0.3949 0.4264,-0.0853 0.9236,-0.1292 1.4891,-0.1292 h 0.6213 v -0.385 c 0,-0.1998 -0.0195,-0.3753 -0.0609,-0.5264 -0.0391,-0.1485 -0.1072,-0.2752 -0.1998,-0.3753 -0.0927,-0.0997 -0.2146,-0.1729 -0.3705,-0.2216 -0.1534,-0.0465 -0.3461,-0.0709 -0.5726,-0.0709 -0.2999,0 -0.5678,0.0343 -0.802,0.1001 -0.2361,0.0657 -0.4433,0.1411 -0.6236,0.2216 -0.1805,0.0805 -0.3316,0.1559 -0.4535,0.222 -0.1216,0.0657 -0.2191,0.0998 -0.2948,0.0998 -0.0536,0 -0.0998,-0.017 -0.1389,-0.0488 -0.0414,-0.034 -0.0754,-0.0828 -0.0998,-0.1437 -0.0269,-0.061 -0.0465,-0.1389 -0.0609,-0.229 -0.0148,-0.0902 -0.0222,-0.1903 -0.0222,-0.2974 0,-0.1488 0.0122,-0.2656 0.0366,-0.3509 0.0221,-0.0854 0.0683,-0.161 0.1341,-0.2316 0.0683,-0.0683 0.1828,-0.1437 0.3509,-0.2265 0.1658,-0.0831 0.3609,-0.161 0.5851,-0.2316 0.2239,-0.0731 0.4677,-0.1315 0.731,-0.1755 0.2657,-0.0462 0.5386,-0.0683 0.8187,-0.0683 0.4997,0 0.9261,0.0488 1.2818,0.1463 0.3535,0.0975 0.646,0.2486 0.8725,0.4507 0.2291,0.2024 0.3974,0.4632 0.502,0.7824 0.1049,0.3169 0.1559,0.697 0.1559,1.1333 z m -1.7691,-2.7343 h -0.6848 c -0.29,0 -0.536,0.0221 -0.7407,0.0635 -0.2049,0.0439 -0.3705,0.1071 -0.4997,0.195 -0.1293,0.0851 -0.2217,0.1877 -0.2804,0.3093 -0.0607,0.1219 -0.0901,0.2608 -0.0901,0.4167 0,0.2681 0.0853,0.4779 0.2534,0.629 0.1684,0.1533 0.4022,0.229 0.7018,0.229 0.2512,0 0.4828,-0.0635 0.6948,-0.1924 0.212,-0.1293 0.4263,-0.317 0.6457,-0.5656 z m 11.8834,2.7125 c 0,0.051 -0.0121,0.0949 -0.0365,0.1315 -0.0219,0.0366 -0.0635,0.0658 -0.1194,0.0901 -0.0586,0.0222 -0.1366,0.0392 -0.2341,0.0488 -0.0975,0.01 -0.2169,0.0147 -0.358,0.0147 -0.1537,0 -0.2778,-0.005 -0.3731,-0.0147 -0.0949,-0.01 -0.1706,-0.0266 -0.2315,-0.0488 -0.0584,-0.0243 -0.1024,-0.0561 -0.1268,-0.0901 -0.0266,-0.0366 -0.0413,-0.0805 -0.0413,-0.1341 v -0.7089 c -0.3266,0.3532 -0.6727,0.6262 -1.0307,0.8212 -0.3609,0.195 -0.758,0.2922 -1.1968,0.2922 -0.4847,0 -0.8966,-0.0949 -1.2305,-0.2826 -0.3362,-0.1876 -0.6092,-0.4411 -0.8212,-0.7602 -0.2121,-0.317 -0.3657,-0.6897 -0.4607,-1.1163 -0.0949,-0.4264 -0.1437,-0.8748 -0.1437,-1.3451 0,-0.5655 0.061,-1.0749 0.1826,-1.5281 0.1219,-0.4507 0.2973,-0.836 0.5315,-1.1551 0.2338,-0.3192 0.5238,-0.563 0.8722,-0.7359 0.3461,-0.1707 0.7458,-0.256 1.1991,-0.256 0.3557,0 0.68,0.0732 0.97,0.2169 0.2922,0.1462 0.5799,0.3583 0.8651,0.6386 v -3.4435 c 0,-0.0488 0.0122,-0.0902 0.0388,-0.1293 0.027,-0.0365 0.0732,-0.0706 0.144,-0.0949 0.0681,-0.027 0.1608,-0.0462 0.2727,-0.061 0.1148,-0.0144 0.2608,-0.0218 0.4363,-0.0218 0.1754,0 0.3217,0.007 0.4362,0.0218 0.1123,0.0148 0.2047,0.034 0.2707,0.061 0.0658,0.0243 0.1146,0.0584 0.1412,0.0949 0.0292,0.0391 0.0439,0.0805 0.0439,0.1293 z m -1.7838,-4.2574 c -0.256,-0.3243 -0.5046,-0.5703 -0.7384,-0.7435 -0.2364,-0.1704 -0.4825,-0.2557 -0.741,-0.2557 -0.2313,0 -0.4337,0.0584 -0.6018,0.1755 -0.1706,0.1168 -0.3047,0.2704 -0.4071,0.4654 -0.1023,0.1973 -0.1802,0.4142 -0.229,0.6531 -0.0513,0.2413 -0.0757,0.4873 -0.0757,0.7384 0,0.2682 0.0221,0.5264 0.0635,0.7773 0.044,0.2534 0.1145,0.4776 0.2121,0.6752 0.0975,0.1973 0.2264,0.3558 0.3897,0.4751 0.161,0.1193 0.3657,0.178 0.6143,0.178 0.1219,0 0.2438,-0.017 0.3606,-0.0536 0.117,-0.0365 0.2341,-0.0926 0.356,-0.1754 0.1216,-0.0805 0.246,-0.1854 0.375,-0.3169 0.1293,-0.1316 0.2707,-0.29 0.4218,-0.4802 z m 11.2983,4.2792 c 0,0.0658 -0.0243,0.1171 -0.0706,0.1559 -0.0487,0.0391 -0.1241,0.0661 -0.2264,0.0831 -0.1024,0.017 -0.2537,0.0243 -0.4559,0.0243 -0.2145,0 -0.3704,-0.007 -0.468,-0.0243 -0.0975,-0.017 -0.168,-0.044 -0.2072,-0.0831 -0.0413,-0.0388 -0.0606,-0.0901 -0.0606,-0.1559 v -0.5068 c -0.2634,0.2803 -0.5607,0.4972 -0.8969,0.6531 -0.3339,0.1559 -0.7067,0.2338 -1.1163,0.2338 -0.3362,0 -0.6483,-0.0436 -0.9309,-0.1315 -0.2826,-0.0876 -0.5264,-0.2194 -0.7336,-0.3923 -0.2069,-0.1755 -0.3679,-0.3901 -0.4825,-0.6457 -0.1145,-0.2586 -0.1706,-0.5582 -0.1706,-0.8995 0,-0.3727 0.0731,-0.6945 0.2171,-0.9674 0.146,-0.2753 0.3632,-0.4995 0.6506,-0.6798 0.2874,-0.178 0.6435,-0.3095 1.0723,-0.3949 0.4264,-0.0853 0.9236,-0.1292 1.4891,-0.1292 h 0.6213 v -0.385 c 0,-0.1998 -0.0195,-0.3753 -0.0609,-0.5264 -0.0391,-0.1485 -0.1072,-0.2752 -0.1999,-0.3753 -0.0927,-0.0997 -0.2145,-0.1729 -0.3704,-0.2216 -0.1534,-0.0465 -0.3462,-0.0709 -0.5726,-0.0709 -0.3,0 -0.5678,0.0343 -0.802,0.1001 -0.2361,0.0657 -0.4433,0.1411 -0.6236,0.2216 -0.1806,0.0805 -0.3316,0.1559 -0.4535,0.222 -0.1216,0.0657 -0.2191,0.0998 -0.2948,0.0998 -0.0536,0 -0.0998,-0.017 -0.1389,-0.0488 -0.0414,-0.034 -0.0754,-0.0828 -0.0998,-0.1437 -0.0269,-0.061 -0.0465,-0.1389 -0.061,-0.229 -0.0147,-0.0902 -0.0221,-0.1903 -0.0221,-0.2974 0,-0.1488 0.0122,-0.2656 0.0366,-0.3509 0.0221,-0.0854 0.0683,-0.161 0.1341,-0.2316 0.0683,-0.0683 0.1828,-0.1437 0.3509,-0.2265 0.1658,-0.0831 0.3609,-0.161 0.5851,-0.2316 0.2239,-0.0731 0.4677,-0.1315 0.731,-0.1755 0.2656,-0.0462 0.5386,-0.0683 0.8187,-0.0683 0.4997,0 0.9261,0.0488 1.2818,0.1463 0.3535,0.0975 0.646,0.2486 0.8725,0.4507 0.229,0.2024 0.3974,0.4632 0.502,0.7824 0.1049,0.3169 0.1559,0.697 0.1559,1.1333 z m -1.7691,-2.7343 h -0.6848 c -0.29,0 -0.5361,0.0221 -0.7407,0.0635 -0.205,0.0439 -0.3705,0.1071 -0.4998,0.195 -0.1292,0.0851 -0.2216,0.1877 -0.2803,0.3093 -0.0607,0.1219 -0.0902,0.2608 -0.0902,0.4167 0,0.2681 0.0854,0.4779 0.2535,0.629 0.1683,0.1533 0.4022,0.229 0.7018,0.229 0.2512,0 0.4828,-0.0635 0.6948,-0.1924 0.212,-0.1293 0.4263,-0.317 0.6457,-0.5656 z m 12.2488,-0.5604 c 0,0.5652 -0.0606,1.0746 -0.1851,1.5279 -0.1241,0.451 -0.3022,0.8359 -0.5337,1.1551 -0.2339,0.3195 -0.5213,0.5629 -0.8601,0.7361 -0.3413,0.1707 -0.7262,0.2557 -1.1577,0.2557 -0.2145,0 -0.4144,-0.0192 -0.5995,-0.0609 -0.1851,-0.0389 -0.3631,-0.1046 -0.5312,-0.1948 -0.1706,-0.0926 -0.3365,-0.2046 -0.4997,-0.3435 -0.1633,-0.1392 -0.3314,-0.3047 -0.5021,-0.4998 v 0.6945 c 0,0.0536 -0.0144,0.0975 -0.0388,0.1341 -0.0269,0.034 -0.0709,0.0658 -0.1292,0.0901 -0.061,0.0222 -0.1389,0.0392 -0.2387,0.0488 -0.1001,0.01 -0.222,0.0147 -0.3657,0.0147 -0.1463,0 -0.2682,-0.005 -0.3657,-0.0147 -0.0997,-0.01 -0.1777,-0.0266 -0.2361,-0.0488 -0.0609,-0.0243 -0.1026,-0.0535 -0.1244,-0.0901 -0.0244,-0.0366 -0.0366,-0.0805 -0.0366,-0.1315 v -9.3946 c 0,-0.0488 0.0147,-0.0901 0.0439,-0.1293 0.0267,-0.0365 0.0754,-0.0705 0.1463,-0.0949 0.068,-0.027 0.1607,-0.0462 0.273,-0.061 0.1145,-0.0147 0.2608,-0.0218 0.4362,-0.0218 0.1752,0 0.3215,0.007 0.436,0.0218 0.1123,0.0148 0.2049,0.034 0.273,0.061 0.0708,0.0244 0.1196,0.0584 0.1462,0.0949 0.0292,0.0392 0.044,0.0828 0.044,0.1293 v 3.5237 c 0.1607,-0.1607 0.324,-0.2996 0.485,-0.4141 0.1607,-0.1145 0.324,-0.2072 0.485,-0.2826 0.1607,-0.0731 0.3266,-0.127 0.4995,-0.161 0.1706,-0.0318 0.3509,-0.0488 0.5411,-0.0488 0.4703,0 0.87,0.095 1.1988,0.2826 0.3265,0.1877 0.5947,0.4414 0.8019,0.7606 0.2072,0.3166 0.3583,0.6896 0.4533,1.116 0.0949,0.4266 0.1411,0.875 0.1411,1.3453 z m -1.857,0.1242 c 0,-0.2705 -0.0192,-0.5313 -0.0606,-0.7821 -0.0391,-0.2534 -0.1097,-0.4754 -0.2098,-0.6704 -0.0998,-0.1948 -0.2316,-0.351 -0.3897,-0.4655 -0.1585,-0.1168 -0.3609,-0.1754 -0.6044,-0.1754 -0.1171,0 -0.2341,0.0173 -0.3487,0.0487 -0.1145,0.0343 -0.2315,0.0927 -0.3532,0.1732 -0.1218,0.0802 -0.2463,0.1851 -0.3753,0.3118 -0.1292,0.1293 -0.2633,0.2877 -0.407,0.4777 v 2.1129 c 0.2534,0.3217 0.4946,0.5652 0.7237,0.7336 0.2316,0.1681 0.4728,0.2509 0.7262,0.2509 0.2316,0 0.4314,-0.0584 0.5922,-0.1777 0.161,-0.1197 0.2973,-0.273 0.4045,-0.4632 0.1048,-0.19 0.1828,-0.4071 0.2316,-0.6483 0.0462,-0.2412 0.0705,-0.485 0.0705,-0.7262 z m 7.38,3.1487 c 0,0.0462 -0.0147,0.0876 -0.0439,0.1241 -0.0266,0.0366 -0.0754,0.0658 -0.1463,0.0902 -0.068,0.0221 -0.1607,0.0416 -0.2729,0.0538 -0.1146,0.0122 -0.2608,0.017 -0.436,0.017 -0.1755,0 -0.3217,-0.005 -0.4363,-0.017 -0.1122,-0.0122 -0.2049,-0.0317 -0.2729,-0.0538 -0.0709,-0.0244 -0.1197,-0.0536 -0.1463,-0.0902 -0.0292,-0.0365 -0.0439,-0.0779 -0.0439,-0.1241 v -9.3946 c 0,-0.0488 0.0147,-0.0901 0.0439,-0.1293 0.0266,-0.0365 0.0754,-0.0705 0.1463,-0.0949 0.068,-0.027 0.1607,-0.0462 0.2729,-0.061 0.1146,-0.0147 0.2608,-0.0218 0.4363,-0.0218 0.1752,0 0.3214,0.007 0.436,0.0218 0.1122,0.0148 0.2049,0.034 0.2729,0.061 0.0709,0.0244 0.1197,0.0584 0.1463,0.0949 0.0292,0.0392 0.0439,0.0805 0.0439,0.1293 z m 9.9533,-3.3704 c 0,0.2194 -0.0487,0.3801 -0.1462,0.485 -0.0975,0.1049 -0.2316,0.1584 -0.4045,0.1584 h -3.8798 c 0,0.2705 0.0317,0.5143 0.0975,0.7359 0.0632,0.2194 0.1655,0.4071 0.3044,0.5604 0.1415,0.1537 0.3218,0.2707 0.5437,0.351 0.2217,0.0805 0.4847,0.1218 0.7943,0.1218 0.3143,0 0.5899,-0.0218 0.8286,-0.0683 0.2364,-0.0462 0.4436,-0.0949 0.6165,-0.1511 0.1732,-0.0558 0.3169,-0.1046 0.4314,-0.151 0.1145,-0.0462 0.2072,-0.0681 0.2778,-0.0681 0.044,0 0.0805,0.007 0.1072,0.0244 0.0294,0.017 0.0538,0.0462 0.0731,0.0901 0.0173,0.0414 0.0317,0.1024 0.0391,0.1803 0.007,0.078 0.01,0.178 0.01,0.2948 0,0.1049 -0.002,0.1951 -0.007,0.2682 -0.005,0.0731 -0.0122,0.1363 -0.0218,0.1876 -0.01,0.0536 -0.0219,0.0976 -0.0414,0.1316 -0.0196,0.0365 -0.044,0.0706 -0.0757,0.1049 -0.0315,0.0317 -0.1145,0.0779 -0.2534,0.1363 -0.1389,0.0587 -0.3144,0.1145 -0.5287,0.1706 -0.2146,0.0562 -0.4584,0.1049 -0.7336,0.1463 -0.2752,0.0414 -0.5703,0.0632 -0.8847,0.0632 -0.5678,0 -1.0624,-0.0706 -1.489,-0.2143 -0.4241,-0.1414 -0.7798,-0.3583 -1.0673,-0.6483 -0.2851,-0.2899 -0.4972,-0.6579 -0.6386,-1.0989 -0.1389,-0.4437 -0.2095,-0.9627 -0.2095,-1.5574 0,-0.5652 0.0731,-1.0746 0.2217,-1.5304 0.1462,-0.4533 0.3608,-0.8382 0.6434,-1.1551 0.2804,-0.317 0.6214,-0.5582 1.0236,-0.7237 0.4045,-0.1684 0.8578,-0.2512 1.3624,-0.2512 0.5334,0 0.9892,0.078 1.3671,0.2364 0.3801,0.1559 0.6897,0.3753 0.9332,0.6531 0.2412,0.2778 0.4218,0.6092 0.5363,0.9896 0.1145,0.3801 0.1706,0.7943 0.1706,1.2427 z m -1.7402,-0.5117 c 0.0148,-0.5045 -0.0875,-0.9017 -0.3047,-1.1894 -0.2168,-0.29 -0.5505,-0.4337 -1.004,-0.4337 -0.2291,0 -0.4289,0.0439 -0.597,0.1293 -0.1706,0.085 -0.3118,0.1995 -0.4241,0.3458 -0.1119,0.1463 -0.1972,0.3169 -0.2556,0.5142 -0.061,0.1998 -0.0953,0.4096 -0.1049,0.6338 z m 17.6123,-0.6338 c 0,0.8481 -0.1097,1.5721 -0.3314,2.1764 -0.2217,0.6018 -0.5386,1.0917 -0.9527,1.4743 -0.4145,0.3802 -0.919,0.6605 -1.5112,0.8382 -0.5921,0.1781 -1.2988,0.2682 -2.1177,0.2682 h -2.2054 c -0.1585,0 -0.29,-0.0462 -0.3971,-0.1389 -0.1075,-0.0927 -0.161,-0.2438 -0.161,-0.4533 v -8.0566 c 0,-0.2097 0.0535,-0.3608 0.161,-0.4532 0.1071,-0.0927 0.2386,-0.1389 0.3971,-0.1389 h 2.3686 c 0.8238,0 1.5234,0.0972 2.096,0.2899 0.5751,0.1925 1.0576,0.4777 1.4499,0.8553 0.3923,0.3801 0.6922,0.8481 0.8969,1.4037 0.2046,0.5581 0.307,1.2016 0.307,1.9349 z m -1.9446,0.0658 c 0,-0.4386 -0.0513,-0.8431 -0.1536,-1.2209 -0.1024,-0.3753 -0.2656,-0.6993 -0.4921,-0.9749 -0.2268,-0.2752 -0.5168,-0.492 -0.8703,-0.6457 -0.3557,-0.1533 -0.8186,-0.2316 -1.3963,-0.2316 h -0.9479 v 6.2731 h 0.9771 c 0.5142,0 0.9482,-0.0661 1.2991,-0.1998 0.3509,-0.1319 0.6457,-0.334 0.8821,-0.6021 0.2339,-0.2682 0.4094,-0.6018 0.5264,-1.0015 0.1168,-0.3997 0.1755,-0.8651 0.1755,-1.3966 z m 7.4625,4.4501 c 0,0.0462 -0.0148,0.0876 -0.044,0.1241 -0.0266,0.0366 -0.0754,0.0658 -0.1462,0.0902 -0.0681,0.0221 -0.1607,0.0416 -0.273,0.0538 -0.1145,0.0122 -0.2608,0.017 -0.436,0.017 -0.1754,0 -0.3217,-0.005 -0.4362,-0.017 -0.1123,-0.0122 -0.205,-0.0317 -0.273,-0.0538 -0.0709,-0.0244 -0.1196,-0.0536 -0.1463,-0.0902 -0.0292,-0.0365 -0.0439,-0.0779 -0.0439,-0.1241 v -6.3607 c 0,-0.0462 0.0147,-0.0876 0.0439,-0.1241 0.0267,-0.0366 0.0754,-0.0684 0.1463,-0.0927 0.068,-0.0267 0.1607,-0.0462 0.273,-0.061 0.1145,-0.0144 0.2608,-0.0218 0.4362,-0.0218 0.1752,0 0.3215,0.007 0.436,0.0218 0.1123,0.0148 0.2049,0.0343 0.273,0.061 0.0708,0.0243 0.1196,0.0561 0.1462,0.0927 0.0292,0.0365 0.044,0.0779 0.044,0.1241 z m 0.1463,-8.5394 c 0,0.3631 -0.0732,0.6117 -0.222,0.7506 -0.1485,0.1389 -0.4215,0.2072 -0.8235,0.2072 -0.4048,0 -0.68,-0.0657 -0.8189,-0.1998 -0.1414,-0.1341 -0.212,-0.3753 -0.212,-0.7214 0,-0.3631 0.0731,-0.614 0.2194,-0.7555 0.1437,-0.1389 0.4189,-0.2094 0.826,-0.2094 0.3997,0 0.6727,0.0683 0.8164,0.2046 0.1437,0.1341 0.2146,0.3753 0.2146,0.7237 z m 8.4177,6.736 c 0,0.3605 -0.0683,0.68 -0.2046,0.9578 -0.1341,0.2752 -0.3266,0.5043 -0.5752,0.6919 -0.2486,0.1854 -0.5411,0.3243 -0.8799,0.4167 -0.3387,0.0927 -0.7041,0.1389 -1.099,0.1389 -0.2386,0 -0.468,-0.017 -0.6848,-0.0535 -0.2169,-0.0366 -0.4093,-0.0828 -0.5822,-0.1389 -0.1707,-0.0536 -0.3144,-0.1097 -0.4289,-0.1681 -0.1148,-0.0584 -0.1976,-0.112 -0.2486,-0.1633 -0.0539,-0.0513 -0.0953,-0.1293 -0.1219,-0.2364 -0.0292,-0.1049 -0.044,-0.2631 -0.044,-0.4728 0,-0.1364 0.005,-0.2461 0.0148,-0.3289 0.01,-0.083 0.0244,-0.151 0.0414,-0.1998 0.0195,-0.0488 0.0436,-0.0831 0.0731,-0.1001 0.0267,-0.017 0.0632,-0.0243 0.1072,-0.0243 0.051,0 0.1292,0.0292 0.2315,0.0901 0.1024,0.0609 0.2291,0.1267 0.3824,0.1976 0.1511,0.0731 0.3291,0.1411 0.5315,0.2021 0.2021,0.0635 0.4337,0.0952 0.6897,0.0952 0.1607,0 0.307,-0.0173 0.4312,-0.0513 0.1267,-0.0317 0.2364,-0.0805 0.3291,-0.1437 0.0926,-0.0609 0.1632,-0.1389 0.212,-0.2364 0.0462,-0.095 0.0706,-0.2047 0.0706,-0.3291 0,-0.1437 -0.044,-0.2656 -0.1316,-0.3679 -0.0901,-0.1024 -0.2072,-0.1925 -0.3509,-0.2682 -0.1463,-0.0754 -0.3121,-0.146 -0.4946,-0.2143 -0.1829,-0.0658 -0.3731,-0.1389 -0.5655,-0.222 -0.1925,-0.0802 -0.3827,-0.1729 -0.5653,-0.2778 -0.1828,-0.1045 -0.3486,-0.2313 -0.4949,-0.3849 -0.1437,-0.1511 -0.2608,-0.3362 -0.3509,-0.5482 -0.0876,-0.2146 -0.1316,-0.4728 -0.1316,-0.7727 0,-0.3045 0.061,-0.5823 0.1803,-0.8382 0.1196,-0.2535 0.29,-0.4729 0.5142,-0.6531 0.2268,-0.1803 0.4998,-0.3218 0.8215,-0.4216 0.324,-0.1 0.6846,-0.1488 1.0868,-0.1488 0.2021,0 0.3949,0.0148 0.5848,0.0414 0.1877,0.0292 0.3609,0.0658 0.5119,0.1074 0.1534,0.0437 0.2827,0.0876 0.3875,0.1389 0.1046,0.0488 0.1803,0.0924 0.2265,0.1267 0.0462,0.0366 0.078,0.0706 0.0975,0.1072 0.017,0.0366 0.0318,0.0779 0.0414,0.1293 0.01,0.0487 0.0196,0.1119 0.0269,0.1851 0.007,0.0731 0.01,0.1658 0.01,0.2752 0,0.1293 -0.002,0.2341 -0.01,0.3146 -0.007,0.0803 -0.0195,0.146 -0.0365,0.1925 -0.017,0.0488 -0.0391,0.0802 -0.0683,0.0975 -0.0292,0.017 -0.0632,0.0244 -0.0998,0.0244 -0.0439,0 -0.1123,-0.0244 -0.2024,-0.0757 -0.0901,-0.0487 -0.2047,-0.1023 -0.3413,-0.1584 -0.1363,-0.0562 -0.2948,-0.1097 -0.4725,-0.1585 -0.1806,-0.051 -0.3853,-0.0754 -0.6143,-0.0754 -0.1633,0 -0.3047,0.017 -0.4241,0.0488 -0.1193,0.034 -0.2168,0.0827 -0.2948,0.1437 -0.0757,0.0609 -0.134,0.1341 -0.1706,0.2168 -0.0388,0.0831 -0.0584,0.1732 -0.0584,0.2656 0,0.1489 0.0462,0.273 0.1363,0.3731 0.0902,0.0998 0.2098,0.1876 0.3583,0.263 0.1463,0.0757 0.317,0.1489 0.5046,0.2146 0.1877,0.0658 0.3801,0.1389 0.5726,0.2169 0.1925,0.0779 0.3849,0.1706 0.5726,0.2752 0.1877,0.1049 0.3583,0.2342 0.5046,0.3852 0.1485,0.1534 0.2681,0.3337 0.3583,0.5457 0.0901,0.212 0.1363,0.4632 0.1363,0.7532 z m 10.0313,-1.4769 c 0,0.5655 -0.0607,1.0772 -0.1826,1.5304 -0.1196,0.4533 -0.2973,0.8408 -0.5312,1.16 -0.2316,0.3195 -0.5216,0.5629 -0.8677,0.7361 -0.3484,0.1707 -0.7458,0.2557 -1.1917,0.2557 -0.1851,0 -0.3557,-0.017 -0.5094,-0.0535 -0.1559,-0.0366 -0.3047,-0.0902 -0.4507,-0.1633 -0.144,-0.0754 -0.2877,-0.1656 -0.4314,-0.2753 -0.1415,-0.1097 -0.29,-0.2389 -0.4411,-0.3852 v 2.9976 c 0,0.0488 -0.0147,0.0902 -0.0439,0.1293 -0.0267,0.0366 -0.0754,0.0706 -0.1463,0.095 -0.068,0.0266 -0.1607,0.0462 -0.273,0.0609 -0.1145,0.0145 -0.2607,0.0218 -0.4359,0.0218 -0.1755,0 -0.3218,-0.007 -0.4363,-0.0218 -0.1122,-0.0147 -0.2049,-0.0343 -0.273,-0.0609 -0.0708,-0.0244 -0.1196,-0.0584 -0.1462,-0.095 -0.0292,-0.0391 -0.044,-0.0805 -0.044,-0.1293 v -8.8973 c 0,-0.0465 0.0122,-0.0879 0.0366,-0.1245 0.0218,-0.0366 0.0635,-0.0657 0.1245,-0.0901 0.0583,-0.0219 0.1363,-0.0414 0.2361,-0.0536 0.0975,-0.0122 0.2194,-0.017 0.3656,-0.017 0.1438,0 0.2634,0.005 0.3606,0.017 0.0975,0.0122 0.178,0.0317 0.2364,0.0536 0.0587,0.0244 0.1001,0.0535 0.1245,0.0901 0.0243,0.0366 0.0365,0.078 0.0365,0.1267 v 0.7506 c 0.1851,-0.1899 0.3654,-0.3583 0.546,-0.502 0.1777,-0.1462 0.358,-0.2656 0.5434,-0.3631 0.1876,-0.0975 0.3776,-0.1706 0.5751,-0.2194 0.1973,-0.0462 0.4068,-0.0706 0.631,-0.0706 0.4655,0 0.8629,0.0927 1.1917,0.2755 0.3266,0.1826 0.5947,0.4337 0.8019,0.7529 0.2072,0.3169 0.3583,0.6897 0.4533,1.1138 0.095,0.4215 0.1412,0.8747 0.1412,1.3549 z m -1.8715,0.1245 c 0,-0.2707 -0.0195,-0.5315 -0.0609,-0.7801 -0.0391,-0.2483 -0.1097,-0.4703 -0.2072,-0.6653 -0.0975,-0.1948 -0.2243,-0.351 -0.3827,-0.4655 -0.1607,-0.1168 -0.358,-0.1754 -0.5944,-0.1754 -0.1197,0 -0.2364,0.0173 -0.3535,0.0538 -0.1171,0.0363 -0.2339,0.0924 -0.3558,0.1755 -0.1219,0.0802 -0.246,0.1851 -0.3727,0.3118 -0.1293,0.1293 -0.2659,0.2874 -0.4071,0.4776 v 2.0982 c 0.2509,0.317 0.4921,0.5605 0.7189,0.7336 0.229,0.173 0.4654,0.2583 0.7115,0.2583 0.2341,0 0.4314,-0.0584 0.5947,-0.1777 0.1633,-0.1197 0.2999,-0.2756 0.4022,-0.4655 0.1046,-0.1928 0.1826,-0.4096 0.2313,-0.6531 0.0513,-0.2415 0.0757,-0.485 0.0757,-0.7262 z" style="fill:#868789;fill-rule:evenodd" id="path10"/>
      <path d="m 396.6395,450.8722 c 0,0.5412 -0.0709,1.0358 -0.2146,1.4842 -0.1437,0.4459 -0.3583,0.8312 -0.6505,1.1552 -0.29,0.324 -0.6531,0.5726 -1.0919,0.7506 -0.4386,0.1754 -0.9505,0.263 -1.5353,0.263 -0.5678,0 -1.0601,-0.0779 -1.4794,-0.2364 -0.4189,-0.1559 -0.7676,-0.3849 -1.0429,-0.6845 -0.2755,-0.3 -0.4801,-0.6679 -0.6142,-1.1064 -0.1338,-0.4363 -0.1999,-0.936 -0.1999,-1.499 0,-0.5408 0.0732,-1.038 0.2172,-1.4865 0.146,-0.4507 0.3631,-0.8359 0.6553,-1.1576 0.29,-0.3192 0.6531,-0.5678 1.0894,-0.7455 0.4337,-0.1755 0.9456,-0.2634 1.5304,-0.2634 0.5726,0 1.0675,0.078 1.4865,0.2316 0.4193,0.1559 0.7654,0.3827 1.0383,0.6823 0.2753,0.2999 0.4777,0.6679 0.6118,1.1064 0.134,0.4362 0.1998,0.9382 0.1998,1.506 z m -1.8425,0.0709 c 0,-0.3144 -0.0244,-0.6046 -0.0754,-0.8677 -0.0513,-0.2656 -0.1341,-0.4946 -0.256,-0.6897 -0.1193,-0.195 -0.2778,-0.3483 -0.4751,-0.458 -0.1998,-0.1097 -0.4484,-0.1633 -0.7506,-0.1633 -0.2682,0 -0.502,0.0487 -0.7044,0.1462 -0.1998,0.0973 -0.3657,0.2413 -0.4946,0.4289 -0.1293,0.1877 -0.2268,0.4142 -0.29,0.6775 -0.0658,0.2656 -0.0975,0.5652 -0.0975,0.904 0,0.3143 0.0266,0.6043 0.0779,0.8677 0.0536,0.2656 0.1389,0.4946 0.256,0.6896 0.1168,0.1951 0.2752,0.3461 0.4776,0.4533 0.1999,0.1071 0.4485,0.1607 0.7455,0.1607 0.273,0 0.5094,-0.0487 0.7118,-0.1463 0.1998,-0.0972 0.3654,-0.2386 0.4947,-0.4237 0.1292,-0.1877 0.2242,-0.4119 0.2877,-0.6752 0.0606,-0.2657 0.0924,-0.5653 0.0924,-0.904 z m 10.0409,1.3768 c 0,0.3605 -0.0684,0.68 -0.2047,0.9578 -0.1341,0.2752 -0.3266,0.5043 -0.5752,0.6919 -0.2486,0.1854 -0.5411,0.3243 -0.8798,0.4167 -0.3388,0.0927 -0.7042,0.1389 -1.099,0.1389 -0.2387,0 -0.468,-0.017 -0.6849,-0.0535 -0.2168,-0.0366 -0.4093,-0.0828 -0.5822,-0.1389 -0.1707,-0.0536 -0.3144,-0.1097 -0.4289,-0.1681 -0.1148,-0.0584 -0.1976,-0.112 -0.2486,-0.1633 -0.0538,-0.0513 -0.0952,-0.1293 -0.1219,-0.2364 -0.0292,-0.1049 -0.0439,-0.2631 -0.0439,-0.4728 0,-0.1364 0.005,-0.2461 0.0147,-0.3289 0.01,-0.083 0.0244,-0.151 0.0414,-0.1998 0.0196,-0.0488 0.0437,-0.0831 0.0731,-0.1001 0.0267,-0.017 0.0633,-0.0243 0.1072,-0.0243 0.051,0 0.1293,0.0292 0.2316,0.0901 0.1023,0.0609 0.229,0.1267 0.3824,0.1976 0.1511,0.0731 0.3291,0.1411 0.5315,0.2021 0.2021,0.0635 0.4337,0.0952 0.6896,0.0952 0.1608,0 0.307,-0.0173 0.4312,-0.0513 0.1267,-0.0317 0.2364,-0.0805 0.3291,-0.1437 0.0927,-0.0609 0.1633,-0.1389 0.212,-0.2364 0.0462,-0.095 0.0706,-0.2047 0.0706,-0.3291 0,-0.1437 -0.0439,-0.2656 -0.1315,-0.3679 -0.0902,-0.1024 -0.2072,-0.1925 -0.3509,-0.2682 -0.1463,-0.0754 -0.3121,-0.146 -0.4947,-0.2143 -0.1828,-0.0658 -0.373,-0.1389 -0.5655,-0.222 -0.1925,-0.0802 -0.3827,-0.1729 -0.5652,-0.2778 -0.1829,-0.1045 -0.3487,-0.2313 -0.495,-0.3849 -0.1437,-0.1511 -0.2607,-0.3362 -0.3509,-0.5482 -0.0876,-0.2146 -0.1315,-0.4728 -0.1315,-0.7727 0,-0.3045 0.0609,-0.5823 0.1803,-0.8382 0.1196,-0.2535 0.29,-0.4729 0.5142,-0.6531 0.2267,-0.1803 0.4997,-0.3218 0.8215,-0.4216 0.324,-0.1 0.6845,-0.1488 1.0868,-0.1488 0.2021,0 0.3948,0.0148 0.5847,0.0414 0.1877,0.0292 0.3609,0.0658 0.512,0.1074 0.1533,0.0437 0.2826,0.0876 0.3875,0.1389 0.1046,0.0488 0.1803,0.0924 0.2265,0.1267 0.0462,0.0366 0.0779,0.0706 0.0975,0.1072 0.017,0.0366 0.0317,0.0779 0.0414,0.1293 0.01,0.0487 0.0195,0.1119 0.0269,0.1851 0.007,0.0731 0.01,0.1658 0.01,0.2752 0,0.1293 -0.002,0.2341 -0.01,0.3146 -0.007,0.0803 -0.0196,0.146 -0.0366,0.1925 -0.017,0.0488 -0.0391,0.0802 -0.0683,0.0975 -0.0292,0.017 -0.0632,0.0244 -0.0998,0.0244 -0.0439,0 -0.1122,-0.0244 -0.2024,-0.0757 -0.0901,-0.0487 -0.2046,-0.1023 -0.3413,-0.1584 -0.1363,-0.0562 -0.2948,-0.1097 -0.4725,-0.1585 -0.1806,-0.051 -0.3852,-0.0754 -0.6143,-0.0754 -0.1632,0 -0.3047,0.017 -0.424,0.0488 -0.1194,0.034 -0.2169,0.0827 -0.2948,0.1437 -0.0757,0.0609 -0.1341,0.1341 -0.1707,0.2168 -0.0388,0.0831 -0.0584,0.1732 -0.0584,0.2656 0,0.1489 0.0462,0.273 0.1364,0.3731 0.0901,0.0998 0.2097,0.1876 0.3583,0.263 0.1462,0.0757 0.3169,0.1489 0.5045,0.2146 0.1877,0.0658 0.3802,0.1389 0.5726,0.2169 0.1925,0.0779 0.385,0.1706 0.5726,0.2752 0.1877,0.1049 0.3583,0.2342 0.5046,0.3852 0.1485,0.1534 0.2682,0.3337 0.3583,0.5457 0.0902,0.212 0.1364,0.4632 0.1364,0.7532 z m 9.0515,1.8252 c 0,0.0658 -0.0243,0.1171 -0.0705,0.1559 -0.0488,0.0391 -0.1242,0.0661 -0.2265,0.0831 -0.1024,0.017 -0.2537,0.0243 -0.4558,0.0243 -0.2146,0 -0.3705,-0.007 -0.468,-0.0243 -0.0975,-0.017 -0.1681,-0.044 -0.2072,-0.0831 -0.0414,-0.0388 -0.0607,-0.0901 -0.0607,-0.1559 v -0.5068 c -0.2633,0.2803 -0.5607,0.4972 -0.8969,0.6531 -0.3339,0.1559 -0.7067,0.2338 -1.1163,0.2338 -0.3362,0 -0.6483,-0.0436 -0.9309,-0.1315 -0.2826,-0.0876 -0.5264,-0.2194 -0.7336,-0.3923 -0.2069,-0.1755 -0.3679,-0.3901 -0.4824,-0.6457 -0.1146,-0.2586 -0.1707,-0.5582 -0.1707,-0.8995 0,-0.3727 0.0732,-0.6945 0.2172,-0.9674 0.1459,-0.2753 0.3631,-0.4995 0.6505,-0.6798 0.2874,-0.178 0.6435,-0.3095 1.0724,-0.3949 0.4263,-0.0853 0.9235,-0.1292 1.489,-0.1292 h 0.6213 v -0.385 c 0,-0.1998 -0.0195,-0.3753 -0.0609,-0.5264 -0.0391,-0.1485 -0.1071,-0.2752 -0.1998,-0.3753 -0.0927,-0.0997 -0.2146,-0.1729 -0.3705,-0.2216 -0.1534,-0.0465 -0.3461,-0.0709 -0.5726,-0.0709 -0.2999,0 -0.5678,0.0343 -0.8019,0.1001 -0.2362,0.0657 -0.4434,0.1411 -0.6237,0.2216 -0.1805,0.0805 -0.3316,0.1559 -0.4535,0.222 -0.1216,0.0657 -0.2191,0.0998 -0.2948,0.0998 -0.0536,0 -0.0998,-0.017 -0.1389,-0.0488 -0.0414,-0.034 -0.0754,-0.0828 -0.0998,-0.1437 -0.0269,-0.061 -0.0465,-0.1389 -0.0609,-0.229 -0.0148,-0.0902 -0.0221,-0.1903 -0.0221,-0.2974 0,-0.1488 0.0121,-0.2656 0.0365,-0.3509 0.0221,-0.0854 0.0683,-0.161 0.1341,-0.2316 0.0683,-0.0683 0.1828,-0.1437 0.3509,-0.2265 0.1659,-0.0831 0.3609,-0.161 0.5851,-0.2316 0.2239,-0.0731 0.4677,-0.1315 0.7311,-0.1755 0.2656,-0.0462 0.5385,-0.0683 0.8186,-0.0683 0.4997,0 0.9261,0.0488 1.2818,0.1463 0.3535,0.0975 0.646,0.2486 0.8725,0.4507 0.2291,0.2024 0.3974,0.4632 0.502,0.7824 0.1049,0.3169 0.1559,0.697 0.1559,1.1333 z m -1.7691,-2.7343 h -0.6848 c -0.29,0 -0.536,0.0221 -0.7407,0.0635 -0.2049,0.0439 -0.3705,0.1071 -0.4997,0.195 -0.1293,0.0851 -0.2217,0.1877 -0.2804,0.3093 -0.0607,0.1219 -0.0901,0.2608 -0.0901,0.4167 0,0.2681 0.0853,0.4779 0.2534,0.629 0.1684,0.1533 0.4022,0.229 0.7018,0.229 0.2512,0 0.4828,-0.0635 0.6948,-0.1924 0.212,-0.1293 0.4263,-0.317 0.6457,-0.5656 z m 12.2488,-0.5604 c 0,0.5652 -0.0606,1.0746 -0.1851,1.5279 -0.1241,0.451 -0.3021,0.8359 -0.5337,1.1551 -0.2339,0.3195 -0.5213,0.5629 -0.8601,0.7361 -0.3413,0.1707 -0.7262,0.2557 -1.1576,0.2557 -0.2146,0 -0.4145,-0.0192 -0.5996,-0.0609 -0.1851,-0.0389 -0.3631,-0.1046 -0.5312,-0.1948 -0.1706,-0.0926 -0.3364,-0.2046 -0.4997,-0.3435 -0.1633,-0.1392 -0.3314,-0.3047 -0.502,-0.4998 v 0.6945 c 0,0.0536 -0.0145,0.0975 -0.0389,0.1341 -0.0269,0.034 -0.0708,0.0658 -0.1292,0.0901 -0.061,0.0222 -0.1389,0.0392 -0.2387,0.0488 -0.1001,0.01 -0.222,0.0147 -0.3657,0.0147 -0.1462,0 -0.2681,-0.005 -0.3656,-0.0147 -0.0998,-0.01 -0.1778,-0.0266 -0.2362,-0.0488 -0.0609,-0.0243 -0.1026,-0.0535 -0.1244,-0.0901 -0.0244,-0.0366 -0.0366,-0.0805 -0.0366,-0.1315 v -9.3946 c 0,-0.0488 0.0148,-0.0901 0.044,-0.1293 0.0266,-0.0365 0.0754,-0.0705 0.1462,-0.0949 0.0681,-0.027 0.1607,-0.0462 0.273,-0.061 0.1145,-0.0147 0.2608,-0.0218 0.4363,-0.0218 0.1751,0 0.3214,0.007 0.4359,0.0218 0.1123,0.0148 0.205,0.034 0.273,0.061 0.0709,0.0244 0.1196,0.0584 0.1463,0.0949 0.0292,0.0392 0.0439,0.0828 0.0439,0.1293 v 3.5237 c 0.1607,-0.1607 0.324,-0.2996 0.485,-0.4141 0.1607,-0.1145 0.324,-0.2072 0.485,-0.2826 0.1607,-0.0731 0.3266,-0.127 0.4995,-0.161 0.1706,-0.0318 0.3509,-0.0488 0.5411,-0.0488 0.4703,0 0.87,0.095 1.1988,0.2826 0.3265,0.1877 0.5947,0.4414 0.8019,0.7606 0.2072,0.3166 0.3583,0.6896 0.4533,1.116 0.0949,0.4266 0.1411,0.875 0.1411,1.3453 z m -1.8569,0.1242 c 0,-0.2705 -0.0193,-0.5313 -0.0607,-0.7821 -0.0391,-0.2534 -0.1097,-0.4754 -0.2098,-0.6704 -0.0997,-0.1948 -0.2316,-0.351 -0.3897,-0.4655 -0.1585,-0.1168 -0.3609,-0.1754 -0.6044,-0.1754 -0.117,0 -0.2341,0.0173 -0.3486,0.0487 -0.1146,0.0343 -0.2316,0.0927 -0.3532,0.1732 -0.1219,0.0802 -0.2464,0.1851 -0.3753,0.3118 -0.1293,0.1293 -0.2634,0.2877 -0.4071,0.4777 v 2.1129 c 0.2534,0.3217 0.4946,0.5652 0.7237,0.7336 0.2316,0.1681 0.4728,0.2509 0.7262,0.2509 0.2316,0 0.4315,-0.0584 0.5922,-0.1777 0.161,-0.1197 0.2973,-0.273 0.4045,-0.4632 0.1049,-0.19 0.1828,-0.4071 0.2316,-0.6483 0.0462,-0.2412 0.0706,-0.485 0.0706,-0.7262 z m 7.38,3.1487 c 0,0.0462 -0.0148,0.0876 -0.044,0.1241 -0.0266,0.0366 -0.0754,0.0658 -0.1462,0.0902 -0.0681,0.0221 -0.1608,0.0416 -0.273,0.0538 -0.1145,0.0122 -0.2608,0.017 -0.436,0.017 -0.1755,0 -0.3217,-0.005 -0.4362,-0.017 -0.1123,-0.0122 -0.205,-0.0317 -0.273,-0.0538 -0.0709,-0.0244 -0.1196,-0.0536 -0.1463,-0.0902 -0.0292,-0.0365 -0.0439,-0.0779 -0.0439,-0.1241 v -9.3946 c 0,-0.0488 0.0147,-0.0901 0.0439,-0.1293 0.0267,-0.0365 0.0754,-0.0705 0.1463,-0.0949 0.068,-0.027 0.1607,-0.0462 0.273,-0.061 0.1145,-0.0147 0.2607,-0.0218 0.4362,-0.0218 0.1752,0 0.3215,0.007 0.436,0.0218 0.1122,0.0148 0.2049,0.034 0.273,0.061 0.0708,0.0244 0.1196,0.0584 0.1462,0.0949 0.0292,0.0392 0.044,0.0805 0.044,0.1293 z m 9.9532,-3.3704 c 0,0.2194 -0.0487,0.3801 -0.1462,0.485 -0.0975,0.1049 -0.2316,0.1584 -0.4045,0.1584 h -3.8798 c 0,0.2705 0.0317,0.5143 0.0975,0.7359 0.0632,0.2194 0.1656,0.4071 0.3045,0.5604 0.1414,0.1537 0.3217,0.2707 0.5436,0.351 0.2217,0.0805 0.4848,0.1218 0.7943,0.1218 0.3144,0 0.5899,-0.0218 0.8286,-0.0683 0.2364,-0.0462 0.4436,-0.0949 0.6165,-0.1511 0.1732,-0.0558 0.3169,-0.1046 0.4314,-0.151 0.1146,-0.0462 0.2073,-0.0681 0.2778,-0.0681 0.044,0 0.0805,0.007 0.1072,0.0244 0.0295,0.017 0.0538,0.0462 0.0731,0.0901 0.0173,0.0414 0.0318,0.1024 0.0391,0.1803 0.007,0.078 0.01,0.178 0.01,0.2948 0,0.1049 -0.002,0.1951 -0.007,0.2682 -0.005,0.0731 -0.0122,0.1363 -0.0218,0.1876 -0.01,0.0536 -0.0219,0.0976 -0.0414,0.1316 -0.0196,0.0365 -0.0439,0.0706 -0.0757,0.1049 -0.0315,0.0317 -0.1145,0.0779 -0.2534,0.1363 -0.1389,0.0587 -0.3144,0.1145 -0.5287,0.1706 -0.2146,0.0562 -0.4583,0.1049 -0.7336,0.1463 -0.2752,0.0414 -0.5703,0.0632 -0.8847,0.0632 -0.5678,0 -1.0624,-0.0706 -1.489,-0.2143 -0.4241,-0.1414 -0.7798,-0.3583 -1.0673,-0.6483 -0.2851,-0.2899 -0.4972,-0.6579 -0.6386,-1.0989 -0.1389,-0.4437 -0.2095,-0.9627 -0.2095,-1.5574 0,-0.5652 0.0732,-1.0746 0.2217,-1.5304 0.1463,-0.4533 0.3608,-0.8382 0.6435,-1.1551 0.2803,-0.317 0.6213,-0.5582 1.0235,-0.7237 0.4045,-0.1684 0.8578,-0.2512 1.3624,-0.2512 0.5335,0 0.9893,0.078 1.3671,0.2364 0.3801,0.1559 0.6897,0.3753 0.9332,0.6531 0.2412,0.2778 0.4218,0.6092 0.5363,0.9896 0.1145,0.3801 0.1706,0.7943 0.1706,1.2427 z m -1.7401,-0.5117 c 0.0147,-0.5045 -0.0876,-0.9017 -0.3048,-1.1894 -0.2168,-0.29 -0.5505,-0.4337 -1.004,-0.4337 -0.229,0 -0.4289,0.0439 -0.597,0.1293 -0.1706,0.085 -0.3118,0.1995 -0.424,0.3458 -0.112,0.1463 -0.1973,0.3169 -0.2557,0.5142 -0.061,0.1998 -0.0953,0.4096 -0.1049,0.6338 z" style="fill:#868789;fill-rule:evenodd" id="path12"/>
    </g>
  </g>
</svg>