<?xml version="1.0" encoding="UTF-8" standalone="no"?>
<svg
   version="1.1"
   width="841.88977"
   height="595.27557"
   id="svg14"
   viewBox="0 0 841.88977 595.27557"
   sodipodi:docname="Wesfo Eco Products Pvt Ltd QQ.cdr"
   xmlns:inkscape="http://www.inkscape.org/namespaces/inkscape"
   xmlns:sodipodi="http://sodipodi.sourceforge.net/DTD/sodipodi-0.dtd"
   xmlns="http://www.w3.org/2000/svg"
   xmlns:svg="http://www.w3.org/2000/svg">
  <defs
     id="defs18" />
  <sodipodi:namedview
     id="namedview16"
     pagecolor="#ffffff"
     bordercolor="#666666"
     borderopacity="1.0"
     inkscape:pageshadow="2"
     inkscape:pageopacity="0.0"
     inkscape:pagecheckerboard="0" />
  <path
     d="M 0,0 H 841.8898 V 595.2756 H 0 Z"
     style="fill:none"
     id="path2" />
  <g
     id="Layer1000">
    <path
       d="m 111.0322,377.7795 -10.1233,37.7739 H 90.3657 l -7.5464,-28.8088 h -0.1848 l -7.8234,28.8088 h -10.417 l -9.813,-37.7739 h 7.3366 l 7.8653,31.8727 0.1596,0.009 8.6545,-31.8812 h 8.3605 l 8.4614,31.8812 0.235,0.008 8.134,-31.8894 z m 26.4501,29.4134 c 0,3.24 -0.8226,5.54 -2.4678,6.8916 -1.4437,1.1834 -4.6168,1.7711 -9.5191,1.7711 -3.3661,0 -5.9179,-0.3357 -7.6388,-1.0072 -2.5098,-0.974 -4.0206,-3.0977 -4.5243,-6.3544 -0.2855,-1.872 -0.4281,-4.0544 -0.4281,-6.5393 0,-5.2545 0.8898,-8.7636 2.6694,-10.5261 1.855,-1.8301 5.0196,-2.7032 9.519,-2.619 4.7089,0.0922 7.8316,0.8141 9.368,2.1657 1.5947,1.4185 2.5265,3.7857 2.7867,7.1099 0.1006,1.2591 0.1763,3.0889 0.235,5.4813 h -18.2322 c 0,0.5709 -0.0167,1.0576 -0.0504,1.4607 0.0589,1.3008 0.1596,2.2578 0.2939,2.8707 0.2603,1.1837 0.7135,1.9811 1.3765,2.3757 1.0409,0.4952 2.594,0.7469 4.6506,0.7469 2.4006,0 3.9534,-0.2854 4.6502,-0.8478 0.6466,-0.5205 0.9655,-1.5109 0.9655,-2.9798 z m -6.3459,-7.6555 c 0,-2.619 -0.2855,-4.2393 -0.8646,-4.8521 -0.4532,-0.4867 -1.2424,-0.7974 -2.342,-0.94 -0.3107,-0.0167 -1.2591,-0.0504 -2.8457,-0.1006 -1.2758,0.0669 -2.1404,0.1341 -2.6022,0.2098 -1.108,0.1763 -1.8802,0.5037 -2.3167,0.9822 -0.6129,0.6797 -0.9151,2.241 -0.9151,4.7007 z m 34.8525,8.4529 c 0.017,1.8048 -0.3523,3.257 -1.1078,4.3733 -1.2843,1.8972 -3.5339,2.9967 -6.7408,3.2904 -1.343,0.1344 -2.9211,0.2016 -4.7426,0.2016 h -0.3441 c -4.8099,0 -7.899,-0.5877 -9.2756,-1.7711 -1.4439,-1.4859 -2.1656,-3.7522 -2.1656,-6.791 h 6.3459 c 0,1.9811 0.4533,3.2151 1.3683,3.7185 0.4867,0.2687 1.578,0.4703 3.2652,0.6129 0.3359,-0.1007 0.7554,-0.1511 1.2592,-0.1511 h 0.5037 c 0.4785,0 0.7974,0.0504 0.957,0.1511 1.5108,-0.0755 2.5602,-0.3022 3.1478,-0.6798 0.7889,-0.5204 1.1835,-1.4522 1.1835,-2.8205 0,-1.4607 -0.4785,-2.4176 -1.4437,-2.8709 -1.0156,-0.47 -2.3924,-0.7302 -4.1216,-0.7807 -3.2235,-0.0924 -5.0618,-0.1596 -5.5151,-0.2015 -2.4593,-0.2265 -4.155,-0.7554 -5.0952,-1.5781 -1.234,-1.0661 -1.855,-3.005 -1.855,-5.8087 v -0.7974 c 0,-1.83 0.3356,-3.257 0.9989,-4.2979 0.6715,-1.0409 1.6787,-1.7878 3.0302,-2.2243 1.5276,-0.5037 4.1803,-0.7555 7.9577,-0.7555 4.1888,0 7.0093,0.4533 8.4615,1.368 1.9808,1.2425 2.9797,3.3075 2.9797,6.1781 h -6.2954 c 0,-1.3765 -0.5542,-2.2997 -1.6538,-2.77 -0.6967,-0.2936 -1.8552,-0.4447 -3.492,-0.4447 -2.065,0 -3.5424,0.1845 -4.4404,0.5539 -0.764,0.5624 -1.15,1.5531 -1.15,2.9715 0,0.7302 0.1091,1.3011 0.3274,1.7292 0.2432,0.4784 0.7888,0.7891 1.6367,0.9317 1.0995,0.193 2.577,0.294 4.4322,0.3107 5.9851,0.0504 9.5358,1.1585 10.6521,3.3324 0.5961,1.1837 0.9068,2.8542 0.9317,5.0199 z m 18.8283,-14.0434 h -6.4468 v 21.6065 h -6.346 v -21.6065 h -3.7272 v -4.8351 h 3.7272 v -2.5687 c 0,-3.4753 0.6883,-5.8422 2.0648,-7.1014 1.2172,-1.1081 3.3494,-1.6622 6.4049,-1.6622 h 4.1216 v 4.835 h -1.8468 c -1.6033,0 -2.6861,0.1848 -3.2403,0.5542 -0.7722,0.5119 -1.1582,1.7376 -1.1582,3.668 v 2.2751 h 6.4468 z m 27.4405,8.5116 c 0.0334,2.5769 -0.1259,4.8937 -0.4785,6.942 -0.3359,1.914 -1.1333,3.3744 -2.4006,4.39 -1.0579,0.8479 -2.401,1.4103 -4.0462,1.6705 -1.5948,0.2602 -3.4835,0.3946 -5.6659,0.3946 -3.5425,0 -6.1781,-0.3779 -7.899,-1.1416 -1.0914,-0.4784 -1.9642,-1.1919 -2.619,-2.1407 -1.2509,-1.8045 -1.872,-4.9442 -1.872,-9.4181 0,-5.8172 0.6883,-9.5947 2.0651,-11.3238 1.6033,-2.0146 5.0785,-3.0218 10.4255,-3.0218 3.2318,0 5.6914,0.3104 7.3786,0.9318 1.0157,0.3776 1.8635,0.8895 2.5432,1.5361 1.1248,1.0661 1.8134,2.4341 2.0736,4.0963 0.3022,1.8802 0.4615,4.239 0.4952,7.0847 z m -6.3459,0.0252 c 0,-3.979 -0.3527,-6.4216 -1.0661,-7.3281 -0.487,-0.6214 -1.2677,-1.0409 -2.342,-1.2507 -0.4113,-0.0924 -1.3263,-0.1763 -2.7366,-0.2602 -1.3765,0.0839 -2.2663,0.1593 -2.6526,0.2432 -1.0072,0.2015 -1.7796,0.5876 -2.3168,1.1667 -0.7807,0.8479 -1.1752,3.3242 -1.1752,7.4291 0,3.5759 0.3021,5.8674 0.915,6.8831 0.6715,1.0998 2.4176,1.6537 5.2296,1.6537 2.6442,0 4.3399,-0.4533 5.0786,-1.3516 0.7134,-1.0658 1.0661,-3.4667 1.0661,-7.1852 z m 55.0488,13.0697 h -26.0388 v -37.7739 h 25.9467 v 6.1951 h -18.6939 v 9.4685 h 17.7369 v 5.8927 h -17.7369 v 10.0228 h 18.786 z m 28.5486,-10.0228 c 0,4.1888 -0.8561,6.9758 -2.5685,8.3608 -1.6118,1.3094 -4.6925,1.9642 -9.2588,1.9642 -2.359,0 -4.0629,-0.0925 -5.1038,-0.2855 -1.9222,-0.3356 -3.4248,-1.0661 -4.4909,-2.1824 -1.3011,-1.3683 -2.0733,-3.3324 -2.3001,-5.8759 -0.1343,-1.2844 -0.2015,-2.9044 -0.2015,-4.8603 0,-2.5855 0.0842,-4.4742 0.2602,-5.6409 0.3107,-2.1405 0.9822,-3.8696 2.0149,-5.1792 0.9819,-1.2425 2.2411,-2.0481 3.7772,-2.4092 1.6452,-0.3776 3.5929,-0.5791 5.8339,-0.6126 1.7881,-0.0252 3.5845,0.1259 5.3975,0.4448 1.6537,0.3022 2.8791,0.7387 3.6683,1.3096 1.9811,1.4437 2.9716,4.0626 2.9716,7.8568 h -6.2788 c 0,-1.6115 -0.2687,-2.7366 -0.8059,-3.3744 -0.638,-0.9317 -2.2748,-1.4017 -4.9189,-1.4017 -2.4177,0 -3.9538,0.5372 -4.6168,1.6033 -0.5037,0.8308 -0.8226,2.4845 -0.957,4.9776 0.0672,0.3356 0.1006,0.8731 0.1006,1.6033 0,1.5361 -0.0334,2.7448 -0.1006,3.6178 0.1006,0.8059 0.1931,1.62 0.2855,2.4259 0.1425,0.8983 0.4699,1.6285 0.9819,2.1909 0.6381,0.5791 1.8972,0.9236 3.7689,1.0576 0.2435,-0.0669 0.5627,-0.1006 0.957,-0.1006 1.3348,0 2.2833,-0.0672 2.8709,-0.193 0.5877,-0.1259 1.0744,-0.3779 1.4607,-0.7555 0.6044,-0.5961 0.9065,-1.8215 0.9065,-3.6768 v -0.8646 z m 28.7081,-3.0721 c 0.0335,2.5769 -0.1258,4.8937 -0.4785,6.942 -0.3359,1.914 -1.1333,3.3744 -2.4006,4.39 -1.0579,0.8479 -2.401,1.4103 -4.0462,1.6705 -1.5948,0.2602 -3.4835,0.3946 -5.6659,0.3946 -3.5424,0 -6.1781,-0.3779 -7.899,-1.1416 -1.0914,-0.4784 -1.9641,-1.1919 -2.6189,-2.1407 -1.251,-1.8045 -1.872,-4.9442 -1.872,-9.4181 0,-5.8172 0.6882,-9.5947 2.065,-11.3238 1.6033,-2.0146 5.0785,-3.0218 10.4255,-3.0218 3.2318,0 5.6914,0.3104 7.3786,0.9318 1.0157,0.3776 1.8635,0.8895 2.5433,1.5361 1.1248,1.0661 1.8133,2.4341 2.0735,4.0963 0.3022,1.8802 0.4615,4.239 0.4952,7.0847 z m -6.3459,0.0252 c 0,-3.979 -0.3526,-6.4216 -1.0661,-7.3281 -0.487,-0.6214 -1.2677,-1.0409 -2.342,-1.2507 -0.4113,-0.0924 -1.3263,-0.1763 -2.7366,-0.2602 -1.3765,0.0839 -2.2663,0.1593 -2.6526,0.2432 -1.0072,0.2015 -1.7796,0.5876 -2.3168,1.1667 -0.7806,0.8479 -1.1752,3.3242 -1.1752,7.4291 0,3.5759 0.3022,5.8674 0.915,6.8831 0.6715,1.0998 2.4177,1.6537 5.2296,1.6537 2.6442,0 4.3399,-0.4533 5.0786,-1.3516 0.7135,-1.0658 1.0661,-3.4667 1.0661,-7.1852 z m 59.1789,-11.9197 c 0,4.6335 -0.7892,7.9072 -2.3757,9.8294 -1.6367,1.9812 -4.8098,2.9716 -9.5105,2.9716 h -11.0299 v 12.1884 h -7.2528 v -37.7739 h 16.5198 c 2.9633,0 5.4984,0.2769 7.6136,0.8226 2.2161,0.5794 3.7689,1.8215 4.6754,3.727 0.9068,1.8972 1.3601,4.6505 1.3601,8.2349 z m -7.1518,0.3104 c 0.0419,-2.3587 -0.2268,-4.0459 -0.7977,-5.0448 -0.3861,-0.6716 -1.0071,-1.15 -1.8717,-1.427 -0.8563,-0.2854 -2.0985,-0.428 -3.727,-0.428 h -9.3679 v 13.1955 h 9.1749 c 2.6271,0 4.3228,-0.3359 5.0782,-1.0074 0.6801,-0.6043 1.0829,-1.2087 1.2172,-1.7963 0.1678,-0.8478 0.2688,-2.0061 0.294,-3.492 z m 31.6794,8.3608 h -5.8926 c 0,-2.8624 -0.3442,-4.5414 -1.0409,-5.0451 -0.4785,-0.3441 -1.2172,-0.5287 -2.2076,-0.5454 -1.5699,-0.0252 -2.7533,0.4195 -3.5592,1.3345 -0.7974,0.9151 -1.2005,2.384 -1.2005,4.3901 v 16.1841 h -6.3459 v -26.4416 h 6.1948 l -0.2015,3.5255 h 0.2939 c 1.1248,-2.5518 3.4416,-3.8277 6.9503,-3.8277 1.6452,0 2.9296,0.235 3.8531,0.7135 0.9905,0.5205 1.7207,1.2254 2.1991,2.0985 0.6381,1.192 0.957,2.9716 0.957,5.347 z m 27.9527,3.2233 c 0.0335,2.5769 -0.1258,4.8937 -0.4784,6.942 -0.3359,1.914 -1.1333,3.3744 -2.4007,4.39 -1.0579,0.8479 -2.4009,1.4103 -4.0462,1.6705 -1.5947,0.2602 -3.4835,0.3946 -5.6659,0.3946 -3.5424,0 -6.1781,-0.3779 -7.899,-1.1416 -1.0913,-0.4784 -1.9641,-1.1919 -2.6189,-2.1407 -1.2509,-1.8045 -1.872,-4.9442 -1.872,-9.4181 0,-5.8172 0.6882,-9.5947 2.065,-11.3238 1.6033,-2.0146 5.0786,-3.0218 10.4256,-3.0218 3.2317,0 5.6914,0.3104 7.3785,0.9318 1.0157,0.3776 1.8635,0.8895 2.5433,1.5361 1.1248,1.0661 1.8133,2.4341 2.0735,4.0963 0.3022,1.8802 0.4615,4.239 0.4952,7.0847 z m -6.3459,0.0252 c 0,-3.979 -0.3526,-6.4216 -1.0661,-7.3281 -0.487,-0.6214 -1.2676,-1.0409 -2.342,-1.2507 -0.4113,-0.0924 -1.3263,-0.1763 -2.7365,-0.2602 -1.3765,0.0839 -2.2663,0.1593 -2.6527,0.2432 -1.0071,0.2015 -1.7796,0.5876 -2.3168,1.1667 -0.7806,0.8479 -1.1752,3.3242 -1.1752,7.4291 0,3.5759 0.3022,5.8674 0.915,6.8831 0.6716,1.0998 2.4177,1.6537 5.2297,1.6537 2.6441,0 4.3398,-0.4533 5.0785,-1.3516 0.7135,-1.0658 1.0661,-3.4667 1.0661,-7.1852 z m 35.3058,13.0697 h -6.3459 l 0.2435,-3.92 h -0.193 c -1.2762,2.8119 -3.9623,4.2222 -8.0587,4.2222 -3.4667,0 -5.9513,-0.722 -7.4624,-2.1742 -0.8981,-0.8728 -1.5444,-1.8717 -1.9389,-3.0135 -0.6129,-1.7963 -0.9236,-4.432 -0.9236,-7.9073 0,-3.4835 0.1009,-5.7835 0.3107,-6.9083 0.3526,-1.9392 1.0409,-3.4333 2.0565,-4.4742 0.8816,-0.8898 1.8553,-1.5276 2.9382,-1.9054 1.2506,-0.4281 2.8371,-0.6463 4.7426,-0.6631 4.3231,-0.0337 7.0174,1.2422 8.0753,3.8277 h 0.2098 v -14.8578 h 6.3459 z m -6.497,-12.6669 v -1.2674 c 0,-1.4607 -0.0672,-2.6441 -0.2098,-3.5509 -0.445,-2.9464 -2.4343,-4.4235 -5.9601,-4.4235 -2.4259,0 -3.9787,0.6043 -4.6587,1.813 -0.6715,1.1753 -1.0072,3.5173 -1.0072,7.026 0,3.7437 0.4196,6.1109 1.2507,7.0846 0.7639,0.8898 2.0902,1.4017 3.962,1.5528 0.915,-0.0754 2.2665,-0.3104 4.0629,-0.6964 0.6043,-0.2101 1.108,-0.5627 1.5108,-1.0661 0.6968,-0.8816 1.0494,-3.0388 1.0494,-6.4721 z m 36.3132,12.6669 h -6.0942 v -4.0292 h -0.2517 c -1.1333,2.8877 -3.9455,4.3314 -8.4362,4.3314 -5.8592,0 -8.7888,-2.4679 -8.7888,-7.4121 v -19.3317 h 6.3459 v 17.2834 c 0,1.9392 0.2855,3.1646 0.8646,3.6768 0.6968,0.6296 1.914,0.9485 3.6431,0.9485 2.5268,0 4.2812,-0.6211 5.2634,-1.855 0.7721,-0.9822 1.1582,-2.5268 1.1582,-4.642 l -0.0502,-15.4117 h 6.3459 z m 29.4132,-10.0228 c 0,4.1888 -0.8561,6.9758 -2.5685,8.3608 -1.6118,1.3094 -4.6925,1.9642 -9.2588,1.9642 -2.359,0 -4.0629,-0.0925 -5.1038,-0.2855 -1.9222,-0.3356 -3.4248,-1.0661 -4.4909,-2.1824 -1.3011,-1.3683 -2.0733,-3.3324 -2.3,-5.8759 -0.1344,-1.2844 -0.2016,-2.9044 -0.2016,-4.8603 0,-2.5855 0.0842,-4.4742 0.2602,-5.6409 0.3107,-2.1405 0.9822,-3.8696 2.0149,-5.1792 0.9819,-1.2425 2.2411,-2.0481 3.7772,-2.4092 1.6452,-0.3776 3.5929,-0.5791 5.834,-0.6126 1.788,-0.0252 3.5844,0.1259 5.3974,0.4448 1.6537,0.3022 2.8791,0.7387 3.6683,1.3096 1.9811,1.4437 2.9716,4.0626 2.9716,7.8568 h -6.2788 c 0,-1.6115 -0.2687,-2.7366 -0.8059,-3.3744 -0.638,-0.9317 -2.2748,-1.4017 -4.9189,-1.4017 -2.4177,0 -3.9538,0.5372 -4.6168,1.6033 -0.5037,0.8308 -0.8226,2.4845 -0.957,4.9776 0.0672,0.3356 0.1006,0.8731 0.1006,1.6033 0,1.5361 -0.0334,2.7448 -0.1006,3.6178 0.1006,0.8059 0.1931,1.62 0.2855,2.4259 0.1426,0.8983 0.47,1.6285 0.9819,2.1909 0.6381,0.5791 1.8972,0.9236 3.7689,1.0576 0.2435,-0.0669 0.5627,-0.1006 0.957,-0.1006 1.3348,0 2.2833,-0.0672 2.8709,-0.193 0.5877,-0.1259 1.0744,-0.3779 1.4607,-0.7555 0.6044,-0.5961 0.9066,-1.8215 0.9066,-3.6768 v -0.8646 z m 22.6644,-0.1006 c 0,3.9033 -0.5205,6.556 -1.5613,7.9577 -1.2257,1.6452 -3.6264,2.4679 -7.2023,2.4679 -3.7437,0 -6.1948,-0.5959 -7.3619,-1.7879 -1.1667,-1.1919 -1.7543,-3.3579 -1.7543,-6.4887 v -13.6321 h -3.2738 v -4.8351 h 3.2738 v -6.044 h 6.3462 v 6.044 h 10.1735 v 4.8351 h -10.1735 v 13.7412 c 0,1.7124 0.3274,2.7281 0.9819,3.047 0.3864,0.193 0.9822,0.2854 1.7881,0.2854 2.1152,0 3.1731,-1.3096 3.1731,-3.9285 v -1.662 z m 26.7939,2.5603 c 0.017,1.8048 -0.3523,3.257 -1.1078,4.3733 -1.2844,1.8972 -3.5339,2.9967 -6.7408,3.2904 -1.343,0.1344 -2.9211,0.2016 -4.7426,0.2016 h -0.3441 c -4.8099,0 -7.8991,-0.5877 -9.2756,-1.7711 -1.4439,-1.4859 -2.1656,-3.7522 -2.1656,-6.791 h 6.3459 c 0,1.9811 0.4533,3.2151 1.3683,3.7185 0.4867,0.2687 1.578,0.4703 3.2652,0.6129 0.3359,-0.1007 0.7554,-0.1511 1.2592,-0.1511 h 0.5037 c 0.4785,0 0.7974,0.0504 0.9569,0.1511 1.5109,-0.0755 2.5603,-0.3022 3.1479,-0.6798 0.7889,-0.5204 1.1835,-1.4522 1.1835,-2.8205 0,-1.4607 -0.4785,-2.4176 -1.4437,-2.8709 -1.0157,-0.47 -2.3924,-0.7302 -4.1216,-0.7807 -3.2235,-0.0924 -5.0618,-0.1596 -5.5151,-0.2015 -2.4593,-0.2265 -4.155,-0.7554 -5.0952,-1.5781 -1.234,-1.0661 -1.855,-3.005 -1.855,-5.8087 v -0.7974 c 0,-1.83 0.3356,-3.257 0.9989,-4.2979 0.6715,-1.0409 1.6787,-1.7878 3.0302,-2.2243 1.5276,-0.5037 4.1803,-0.7555 7.9577,-0.7555 4.1888,0 7.0093,0.4533 8.4615,1.368 1.9808,1.2425 2.9797,3.3075 2.9797,6.1781 h -6.2954 c 0,-1.3765 -0.5542,-2.2997 -1.6538,-2.77 -0.6967,-0.2936 -1.8552,-0.4447 -3.492,-0.4447 -2.065,0 -3.5424,0.1845 -4.4404,0.5539 -0.764,0.5624 -1.1501,1.5531 -1.1501,2.9715 0,0.7302 0.1092,1.3011 0.3274,1.7292 0.2433,0.4784 0.7889,0.7891 1.6368,0.9317 1.0995,0.193 2.5769,0.294 4.4322,0.3107 5.9851,0.0504 9.5358,1.1585 10.6521,3.3324 0.5961,1.1837 0.9068,2.8542 0.9317,5.0199 z m 52.2706,-17.4263 c 0,4.6335 -0.7892,7.9072 -2.3757,9.8294 -1.6368,1.9812 -4.8099,2.9716 -9.5105,2.9716 h -11.0299 v 12.1884 h -7.2528 v -37.7739 h 16.5198 c 2.9633,0 5.4983,0.2769 7.6136,0.8226 2.2161,0.5794 3.7689,1.8215 4.6754,3.727 0.9068,1.8972 1.3601,4.6505 1.3601,8.2349 z m -7.1518,0.3104 c 0.0419,-2.3587 -0.2268,-4.0459 -0.7977,-5.0448 -0.3861,-0.6716 -1.0071,-1.15 -1.8717,-1.427 -0.8564,-0.2854 -2.0985,-0.428 -3.727,-0.428 h -9.3679 v 13.1955 h 9.1749 c 2.6271,0 4.3228,-0.3359 5.0782,-1.0074 0.6801,-0.6043 1.0829,-1.2087 1.2172,-1.7963 0.1678,-0.8478 0.2687,-2.0061 0.294,-3.492 z m 33.946,-1.7626 -7.664,26.4416 h -9.6616 l -7.9577,-26.4416 h 6.5222 l 6.1781,22.1102 h 0.1006 l 5.7836,-22.1102 z m 20.5994,16.3182 c 0,3.9033 -0.5205,6.556 -1.5614,7.9577 -1.2257,1.6452 -3.6263,2.4679 -7.2022,2.4679 -3.7437,0 -6.1949,-0.5959 -7.3619,-1.7879 -1.1667,-1.1919 -1.7543,-3.3579 -1.7543,-6.4887 v -13.6321 h -3.2738 v -4.8351 h 3.2738 v -6.044 h 6.3462 v 6.044 h 10.1735 v 4.8351 h -10.1735 v 13.7412 c 0,1.7124 0.3274,2.7281 0.9819,3.047 0.3863,0.193 0.9822,0.2854 1.7881,0.2854 2.1152,0 3.1731,-1.3096 3.1731,-3.9285 v -1.662 z m 11.2311,10.1234 h -6.3964 v -6.9001 h 6.3964 z m 52.833,0 h -25.0316 v -37.7739 h 7.3029 v 31.5791 h 17.7287 z M 746.1607,405.43 c 0,3.9033 -0.5205,6.556 -1.5614,7.9577 -1.2257,1.6452 -3.6263,2.4679 -7.2022,2.4679 -3.7437,0 -6.1949,-0.5959 -7.3619,-1.7879 -1.1667,-1.1919 -1.7543,-3.3579 -1.7543,-6.4887 v -13.6321 h -3.2738 v -4.8351 h 3.2738 v -6.044 h 6.3462 v 6.044 h 10.1735 v 4.8351 h -10.1735 v 13.7412 c 0,1.7124 0.3274,2.7281 0.9819,3.047 0.3863,0.193 0.9822,0.2854 1.7881,0.2854 2.1152,0 3.1731,-1.3096 3.1731,-3.9285 v -1.662 z m 27.1465,10.1234 h -6.3459 l 0.2435,-3.92 h -0.1931 c -1.2761,2.8119 -3.9622,4.2222 -8.0586,4.2222 -3.4667,0 -5.9513,-0.722 -7.4625,-2.1742 -0.898,-0.8728 -1.5443,-1.8717 -1.9389,-3.0135 -0.6128,-1.7963 -0.9235,-4.432 -0.9235,-7.9073 0,-3.4835 0.1009,-5.7835 0.3107,-6.9083 0.3526,-1.9392 1.0409,-3.4333 2.0565,-4.4742 0.8816,-0.8898 1.8553,-1.5276 2.9381,-1.9054 1.2507,-0.4281 2.8372,-0.6463 4.7427,-0.6631 4.3231,-0.0337 7.0174,1.2422 8.0753,3.8277 h 0.2098 v -14.8578 h 6.3459 z m -6.497,-12.6669 v -1.2674 c 0,-1.4607 -0.0672,-2.6441 -0.2098,-3.5509 -0.445,-2.9464 -2.4344,-4.4235 -5.9601,-4.4235 -2.4259,0 -3.9787,0.6043 -4.6587,1.813 -0.6716,1.1753 -1.0072,3.5173 -1.0072,7.026 0,3.7437 0.4196,6.1109 1.2507,7.0846 0.7639,0.8898 2.0902,1.4017 3.962,1.5528 0.915,-0.0754 2.2665,-0.3104 4.0629,-0.6964 0.6043,-0.2101 1.108,-0.5627 1.5108,-1.0661 0.6968,-0.8816 1.0494,-3.0388 1.0494,-6.4721 z m 20.4985,12.6669 h -6.3964 v -6.9001 h 6.3964 z"
       style="fill:#000200;fill-rule:evenodd"
       id="path4" />
    <g
       id="Layer1001">
      <path
         d="m 413.9576,179.4202 c 8.6061,21.9568 11.6349,51.4136 -24.6246,64.0424 -2.3331,-12.9468 0.5512,-27.3505 17.8832,-42.4138 -25.0351,13.088 -29.5095,32.996 -15.6522,58.9835 -18.9882,-14.7437 -25.2725,-33.6933 -10.6824,-49.0446 10.6411,-11.1971 28.6048,-22.5956 33.076,-31.5675 z"
         style="fill:#009035;fill-rule:evenodd"
         id="path6" />
      <path
         d="m 342.8321,254.2535 h 31.4483 l 42.7415,62.7225 c 11.5833,-17.1429 23.1661,-34.2863 34.7494,-51.4292 6.5389,-8.5395 12.3172,-12.0583 21.8919,-12.8571 h 82.7034 l -16.6798,25.8882 h -68.1086 c -12.6255,19.1123 -25.251,38.2241 -37.8765,57.3364 -9.1954,12.4128 -22.7449,13.1509 -32.1434,0.3476 z"
         style="fill:#000200;fill-rule:evenodd"
         id="path8" />
      <path
         d="m 455.1077,345.5485 h 21.5755 v -32.813 h 38.3692 l 15.9727,-22.57 h -60.0326 l -15.8848,24.0457 z m -110.8585,-9.2864 -58.7261,-82.0086 h 31.4481 l 42.7417,62.7223 10.1256,-14.8597 14.8951,20.7999 -9.5571,13.3461 c -8.9596,12.2054 -21.9677,12.2054 -30.9273,0 z m 47.6933,-66.5833 10.512,-15.4253 h 31.4481 l -26.8863,37.5458 z"
         style="fill:#caa55c;fill-rule:evenodd"
         id="path10" />
    </g>
  </g>
</svg>
